<svg width="21" height="21" viewBox="0 0 21 21" fill="none" xmlns="http://www.w3.org/2000/svg">
<g id="carbon:phone-filled">
<path id="Vector" d="M13.5381 13.925L14.9381 12.525C15.1266 12.3388 15.3652 12.2113 15.6248 12.1581C15.8844 12.1048 16.1539 12.1281 16.4006 12.225L18.1068 12.9063C18.3561 13.0074 18.5698 13.1801 18.7211 13.4026C18.8723 13.625 18.9543 13.8873 18.9568 14.1563V17.2813C18.9554 17.4643 18.9169 17.6451 18.8437 17.8128C18.7706 17.9805 18.6642 18.1317 18.5311 18.2573C18.3979 18.3828 18.2408 18.4801 18.069 18.5433C17.8973 18.6065 17.7146 18.6343 17.5318 18.625C5.57556 17.8813 3.16306 7.75627 2.70681 3.88128C2.68563 3.69099 2.70498 3.49837 2.76359 3.31609C2.8222 3.13382 2.91874 2.96602 3.04685 2.82374C3.17497 2.68145 3.33176 2.5679 3.50691 2.49057C3.68206 2.41323 3.8716 2.37385 4.06306 2.37503H7.08181C7.35119 2.37582 7.61417 2.45719 7.83693 2.60867C8.05969 2.76015 8.23204 2.9748 8.33181 3.22503L9.01306 4.93128C9.11322 5.17694 9.13877 5.44668 9.08653 5.70678C9.03428 5.96689 8.90656 6.20584 8.71931 6.39378L7.31931 7.79378C7.31931 7.79378 8.12556 13.25 13.5381 13.925Z" fill="#2567CC"/>
</g>
</svg>
