<svg width="21" height="20" viewBox="0 0 21 20" fill="none" xmlns="http://www.w3.org/2000/svg">
<g id="fluent:location-28-filled">
<path id="Vector" d="M10.8315 1.60742C12.6785 1.60742 14.4499 2.34116 15.756 3.64721C17.062 4.95327 17.7958 6.72466 17.7958 8.57171C17.7958 11.5146 15.7279 14.7217 11.6458 18.2274C11.4188 18.4224 11.1294 18.5295 10.8301 18.5292C10.5309 18.529 10.2417 18.4214 10.015 18.226L9.74504 17.9917C5.84362 14.5774 3.86719 11.4489 3.86719 8.57171C3.86719 6.72466 4.60092 4.95327 5.90698 3.64721C7.21304 2.34116 8.98443 1.60742 10.8315 1.60742ZM10.8315 5.89314C10.1211 5.89314 9.43977 6.17534 8.93744 6.67767C8.43511 7.18 8.1529 7.86131 8.1529 8.57171C8.1529 9.28211 8.43511 9.96342 8.93744 10.4657C9.43977 10.9681 10.1211 11.2503 10.8315 11.2503C11.5419 11.2503 12.2232 10.9681 12.7255 10.4657C13.2278 9.96342 13.51 9.28211 13.51 8.57171C13.51 7.86131 13.2278 7.18 12.7255 6.67767C12.2232 6.17534 11.5419 5.89314 10.8315 5.89314Z" fill="#2567CC"/>
</g>
</svg>
