<svg width="21" height="21" viewBox="0 0 21 21" fill="none" xmlns="http://www.w3.org/2000/svg">
<g id="ion:mail">
<path id="Vector" d="M17.3958 3.625H4.27075C3.69078 3.62562 3.13474 3.85629 2.72464 4.26639C2.31454 4.67649 2.08387 5.23253 2.08325 5.8125V15.1875C2.08387 15.7675 2.31454 16.3235 2.72464 16.7336C3.13474 17.1437 3.69078 17.3744 4.27075 17.375H17.3958C17.9757 17.3744 18.5318 17.1437 18.9419 16.7336C19.352 16.3235 19.5826 15.7675 19.5833 15.1875V5.8125C19.5826 5.23253 19.352 4.67649 18.9419 4.26639C18.5318 3.85629 17.9757 3.62562 17.3958 3.625ZM16.8418 7.24336L11.2168 11.6184C11.1072 11.7036 10.9722 11.7499 10.8333 11.7499C10.6943 11.7499 10.5593 11.7036 10.4497 11.6184L4.82466 7.24336C4.75857 7.19345 4.70306 7.13091 4.66135 7.05936C4.61964 6.98781 4.59257 6.90869 4.58171 6.82659C4.57085 6.74449 4.57641 6.66104 4.59807 6.58111C4.61973 6.50118 4.65707 6.42635 4.7079 6.36097C4.75873 6.29559 4.82205 6.24096 4.89418 6.20027C4.96631 6.15957 5.0458 6.13362 5.12805 6.12391C5.2103 6.1142 5.29365 6.12094 5.37327 6.14372C5.45289 6.16651 5.52719 6.20489 5.59185 6.25664L10.8333 10.3332L16.0747 6.25664C16.2057 6.15766 16.3705 6.11425 16.5333 6.1358C16.6961 6.15734 16.8439 6.24211 16.9447 6.37177C17.0455 6.50142 17.0913 6.66555 17.072 6.82866C17.0527 6.99176 16.9701 7.14073 16.8418 7.24336Z" fill="#2567CC"/>
</g>
</svg>
