<svg width="293" height="72" viewBox="0 0 293 72" fill="none" xmlns="http://www.w3.org/2000/svg">
<path d="M39.2725 34.8164L41.5651 30.8369L43.8577 34.8164H39.2725Z" fill="#2567CC"/>
<path d="M39.1807 35.1562L41.5665 45.0257L43.943 35.1562H39.1807Z" fill="#2567CC"/>
<path d="M44.24 34.8184L45.6473 30.8203L48.3033 34.8184H44.24Z" fill="#2567CC"/>
<path d="M44.137 35.1562L41.7046 45.2214L48.3029 35.1562H44.137Z" fill="#2567CC"/>
<path d="M41.7427 30.709H45.4798L44.0633 34.7351L41.7427 30.709Z" fill="#2567CC"/>
<path d="M38.8807 34.8184L37.4735 30.8203L34.8174 34.8184H38.8807Z" fill="#2567CC"/>
<path d="M38.9926 35.1562L41.4157 45.2214L34.8174 35.1562H38.9926Z" fill="#2567CC"/>
<path d="M41.3802 30.709H37.6431L39.0596 34.7351L41.3802 30.709Z" fill="#2567CC"/>
<path d="M65.7397 12.6586L49.6633 21.6894V3.25514C49.6633 2.15543 50.558 1.26074 51.6577 1.26074C52.7574 1.26074 53.6521 2.15543 53.6521 3.25514V14.7835L63.7919 9.18242C64.7518 8.64188 65.9727 8.98671 66.5132 9.94663C67.0444 10.9065 66.7089 12.1274 65.7397 12.6586Z" fill="#2567CC"/>
<path d="M65.9638 20.2246L49.1233 29.6374L44.8735 30.2805L43.0469 26.1239V6.99076C43.0469 5.67669 44.1093 4.61426 45.4234 4.61426C46.7374 4.61426 47.7999 5.67669 47.7999 6.99076V24.9124L63.578 16.1054C64.715 15.4437 66.1689 15.8351 66.8306 16.9814C67.4922 18.1184 67.1008 19.5723 65.9638 20.2246Z" fill="#64ADE0"/>
<path d="M61.8161 7.06428C59.9056 7.16679 57.818 8.4529 55.8516 10.8574C56.7276 8.30378 57.0818 5.86204 56.0566 3.79309C58.2933 3.63465 60.2877 2.0876 62.0211 0C60.9774 2.945 60.9121 5.34014 61.8161 7.06428Z" fill="#64ADE0"/>
<path d="M73.9221 45.2458L58.0415 35.8796L73.9874 26.6159C74.938 26.0661 76.1589 26.3829 76.718 27.3429C77.2679 28.2935 76.951 29.5143 75.9911 30.0735L66.0191 35.8703L75.9538 41.8255C76.9044 42.3847 77.2213 43.6056 76.6621 44.5562C76.1029 45.4882 74.8727 45.805 73.9221 45.2458Z" fill="#2567CC"/>
<path d="M67.492 49.2371L50.8938 39.4049L48.2097 36.0498L50.8844 32.3779L67.4361 22.7693C68.5731 22.1076 70.027 22.4991 70.6887 23.6361C71.3503 24.7731 70.9589 26.2269 69.8219 26.8886L54.3234 35.8914L69.8592 45.1085C70.9962 45.7608 71.3969 47.2147 70.7353 48.361C70.0922 49.498 68.6383 49.8894 67.492 49.2371Z" fill="#64ADE0"/>
<path d="M76.7931 39.0413C75.7493 37.4383 73.5778 36.2827 70.521 35.7887C73.1678 35.2575 75.4604 34.3442 76.7279 32.415C77.986 34.2696 80.3252 35.2202 83 35.6676C79.9338 36.2454 77.8276 37.3917 76.7931 39.0413Z" fill="#64ADE0"/>
<path d="M49.4208 68.5939L49.775 50.1504L65.6742 59.498C66.6248 60.0572 66.9417 61.278 66.3825 62.2286C65.8233 63.1792 64.6025 63.4961 63.6519 62.9369L53.7078 57.0935L53.4096 68.6685C53.391 69.7682 52.4777 70.6442 51.3779 70.6256C50.2689 70.607 49.3929 69.703 49.4208 68.5939Z" fill="#2567CC"/>
<path d="M42.7767 64.9566L43.1774 45.6743L44.7804 41.6855L49.2911 42.2074L65.7961 51.8905C66.9331 52.5522 67.3059 54.0154 66.6442 55.1524C65.9825 56.2894 64.5194 56.6622 63.3824 56.0005L47.9304 46.9232L47.539 64.9939C47.5297 66.308 46.4579 67.3704 45.1439 67.3518C43.8298 67.3425 42.7674 66.2707 42.7767 64.9566Z" fill="#64ADE0"/>
<path d="M56.2248 68.0413C57.1008 66.3451 57.0449 63.8847 55.9731 60.9863C57.7346 63.0366 59.6544 64.5744 61.9563 64.7328C60.9591 66.7365 61.2853 69.2435 62.208 71.7971C60.2136 69.4019 58.1726 68.1345 56.2248 68.0413Z" fill="#64ADE0"/>
<path d="M17.1748 59.1583L33.2977 50.2021L33.2139 68.6457C33.2045 69.7454 32.3099 70.6401 31.2101 70.6308C30.1104 70.6214 29.2157 69.7268 29.2251 68.627L29.281 57.0987L19.1226 62.6532C18.1627 63.1844 16.9418 62.8396 16.4106 61.8796C15.8607 60.9104 16.2055 59.6895 17.1748 59.1583Z" fill="#2567CC"/>
<path d="M16.9904 51.5959L33.8682 42.2577L38.118 41.6426L39.926 45.7991L39.8421 64.9416C39.8328 66.2557 38.7704 67.3181 37.447 67.3088C36.1329 67.2995 35.0705 66.2371 35.0798 64.9137L35.1637 46.992L19.3483 55.7245C18.2113 56.3769 16.7481 55.9762 16.105 54.8392C15.4527 53.7022 15.8441 52.2483 16.9904 51.5959Z" fill="#64ADE0"/>
<path d="M21.0719 64.7749C22.9824 64.6817 25.0793 63.4049 27.0458 61.0098C26.1604 63.5633 25.7876 65.9958 26.8128 68.0647C24.5761 68.2138 22.5817 69.7423 20.8296 71.8298C21.892 68.9035 21.9759 66.499 21.0719 64.7749Z" fill="#64ADE0"/>
<path d="M8.99244 27.1377L24.9569 36.3734L9.08563 45.7676C8.13503 46.3268 6.91416 46.0192 6.35498 45.0686C5.7958 44.118 6.10335 42.8971 7.05395 42.338L16.9794 36.4573L6.99804 30.5859C6.04743 30.0361 5.72125 28.8152 6.27111 27.8553C6.82096 26.914 8.04183 26.5878 8.99244 27.1377Z" fill="#2567CC"/>
<path d="M15.3861 23.0929L32.0683 32.7853L34.7803 36.1218L32.1428 39.8123L15.675 49.5513C14.5474 50.2223 13.0842 49.8496 12.4132 48.7126C11.7422 47.5849 12.1149 46.1217 13.2519 45.4507L28.6666 36.3175L13.0469 27.2308C11.9006 26.5878 11.4998 25.1339 12.1429 23.9876C12.7953 22.8506 14.2398 22.4499 15.3861 23.0929Z" fill="#64ADE0"/>
<path d="M6.17891 33.3662C7.24135 34.9599 9.41282 36.0969 12.479 36.5628C9.8322 37.1127 7.55821 38.0447 6.30007 39.9831C5.02328 38.1379 2.68405 37.2152 0 36.7865C3.05684 36.1901 5.15375 35.0251 6.17891 33.3662Z" fill="#64ADE0"/>
<path d="M32.8607 3.49831L32.898 21.9418L16.803 12.9391C15.843 12.3985 15.4982 11.187 16.0388 10.2271C16.5793 9.26715 17.7908 8.92233 18.7508 9.46286L28.816 15.0919L28.8719 3.50763C28.8719 2.40791 29.7572 1.51323 30.8663 1.50391C31.966 1.50391 32.8607 2.39859 32.8607 3.49831Z" fill="#2567CC"/>
<path d="M39.5709 6.98825V26.2799L38.0518 30.306L33.5318 29.8773L16.831 20.539C15.6847 19.8959 15.2747 18.4514 15.9177 17.2958C16.5608 16.1494 18.0053 15.7394 19.161 16.3824L34.7993 25.1242L34.8179 7.05349C34.7993 5.73943 35.8524 4.65835 37.1665 4.63971C38.4712 4.63039 39.5523 5.67419 39.5709 6.98825Z" fill="#64ADE0"/>
<path d="M26.0659 4.19369C25.2178 5.9085 25.3296 8.35956 26.4666 11.2486C24.6586 9.23561 22.7108 7.73515 20.3995 7.62331C21.3594 5.60096 20.9773 3.1033 19.9988 0.568359C22.0491 2.90758 24.1181 4.13777 26.0659 4.19369Z" fill="#64ADE0"/>
<path d="M99.3032 30.02C98.5472 30.02 97.8752 29.915 97.2872 29.705C96.7132 29.481 96.2512 29.11 95.9012 28.592C95.5652 28.06 95.3762 27.325 95.3342 26.387L94.9982 19.079H96.6992L97.0352 26.009C97.0772 26.667 97.1962 27.164 97.3922 27.5C97.5882 27.822 97.8612 28.039 98.2112 28.151C98.5752 28.249 99.0092 28.298 99.5132 28.298C99.8072 28.298 100.017 28.382 100.143 28.55C100.283 28.704 100.353 28.893 100.353 29.117C100.353 29.341 100.255 29.551 100.059 29.747C99.8632 29.929 99.6112 30.02 99.3032 30.02ZM96.1322 27.71C95.3342 27.962 94.5572 28.088 93.8012 28.088C93.0452 28.088 92.3592 27.976 91.7432 27.752C91.1272 27.528 90.6372 27.206 90.2732 26.786C89.9092 26.352 89.7272 25.834 89.7272 25.232C89.7272 24.644 89.8742 24.091 90.1682 23.573C90.4762 23.055 90.8892 22.593 91.4072 22.187C91.9392 21.781 92.5482 21.445 93.2342 21.179C93.9342 20.899 94.6762 20.71 95.4602 20.612L95.7542 22.376C95.0542 22.404 94.4312 22.502 93.8852 22.67C93.3532 22.824 92.8982 23.027 92.5202 23.279C92.1562 23.531 91.8762 23.804 91.6802 24.098C91.4842 24.392 91.3862 24.679 91.3862 24.959C91.3862 25.267 91.4982 25.519 91.7222 25.715C91.9462 25.911 92.2332 26.065 92.5832 26.177C92.9332 26.275 93.3182 26.338 93.7382 26.366C94.1582 26.38 94.5642 26.366 94.9562 26.324C95.3482 26.268 95.6842 26.191 95.9642 26.093L96.1322 27.71ZM95.6912 16.664C95.3972 16.664 95.1452 16.566 94.9352 16.37C94.7392 16.16 94.6412 15.915 94.6412 15.635C94.6412 15.355 94.7392 15.11 94.9352 14.9C95.1452 14.69 95.3972 14.585 95.6912 14.585C95.9712 14.585 96.2092 14.69 96.4052 14.9C96.6152 15.11 96.7202 15.355 96.7202 15.635C96.7202 15.915 96.6152 16.16 96.4052 16.37C96.2092 16.566 95.9712 16.664 95.6912 16.664ZM92.8142 16.664C92.5202 16.664 92.2682 16.566 92.0582 16.37C91.8622 16.16 91.7642 15.915 91.7642 15.635C91.7642 15.355 91.8622 15.11 92.0582 14.9C92.2682 14.69 92.5202 14.585 92.8142 14.585C93.0942 14.585 93.3322 14.69 93.5282 14.9C93.7382 15.11 93.8432 15.355 93.8432 15.635C93.8432 15.915 93.7382 16.16 93.5282 16.37C93.3322 16.566 93.0942 16.664 92.8142 16.664ZM99.3101 30.02L99.5201 28.298C99.8701 28.298 100.227 28.298 100.591 28.298C100.969 28.284 101.34 28.263 101.704 28.235C102.068 28.207 102.418 28.172 102.754 28.13C103.09 28.088 103.391 28.025 103.657 27.941C104.147 27.787 104.595 27.584 105.001 27.332C105.421 27.08 105.757 26.772 106.009 26.408C106.275 26.044 106.408 25.624 106.408 25.148C106.408 24.826 106.331 24.497 106.177 24.161C106.023 23.811 105.813 23.517 105.547 23.279C105.281 23.041 104.973 22.922 104.623 22.922C104.287 22.922 103.972 23.034 103.678 23.258C103.398 23.482 103.167 23.776 102.985 24.14C102.817 24.49 102.733 24.854 102.733 25.232C102.733 25.68 102.845 26.086 103.069 26.45C103.307 26.8 103.594 27.101 103.93 27.353C104.266 27.605 104.602 27.808 104.938 27.962L102.943 28.55C102.719 28.382 102.453 28.151 102.145 27.857C101.851 27.549 101.585 27.171 101.347 26.723C101.123 26.275 101.011 25.764 101.011 25.19C101.011 24.63 101.109 24.112 101.305 23.636C101.515 23.146 101.788 22.719 102.124 22.355C102.474 21.991 102.866 21.711 103.3 21.515C103.748 21.305 104.21 21.2 104.686 21.2C105.372 21.2 105.974 21.389 106.492 21.767C107.01 22.145 107.409 22.628 107.689 23.216C107.983 23.79 108.13 24.392 108.13 25.022C108.13 25.624 108.018 26.17 107.794 26.66C107.57 27.136 107.262 27.563 106.87 27.941C106.492 28.319 106.044 28.641 105.526 28.907C105.022 29.173 104.483 29.39 103.909 29.558C103.587 29.656 103.237 29.733 102.859 29.789C102.495 29.845 102.11 29.887 101.704 29.915C101.298 29.957 100.892 29.985 100.486 29.999C100.08 30.013 99.6881 30.02 99.3101 30.02ZM109.705 30.02C109.005 30.02 108.277 29.978 107.521 29.894C106.779 29.796 106.072 29.677 105.4 29.537C104.742 29.383 104.196 29.215 103.762 29.033L105.211 27.983C105.631 28.039 106.128 28.095 106.702 28.151C107.276 28.193 107.85 28.228 108.424 28.256C108.998 28.284 109.495 28.298 109.915 28.298C110.209 28.298 110.419 28.382 110.545 28.55C110.685 28.704 110.755 28.893 110.755 29.117C110.755 29.341 110.657 29.551 110.461 29.747C110.265 29.929 110.013 30.02 109.705 30.02ZM105.967 19.037C105.673 19.037 105.421 18.939 105.211 18.743C105.015 18.533 104.917 18.288 104.917 18.008C104.917 17.728 105.015 17.483 105.211 17.273C105.421 17.063 105.673 16.958 105.967 16.958C106.247 16.958 106.485 17.063 106.681 17.273C106.891 17.483 106.996 17.728 106.996 18.008C106.996 18.288 106.891 18.533 106.681 18.743C106.485 18.939 106.247 19.037 105.967 19.037ZM103.09 19.037C102.796 19.037 102.544 18.939 102.334 18.743C102.138 18.533 102.04 18.288 102.04 18.008C102.04 17.728 102.138 17.483 102.334 17.273C102.544 17.063 102.796 16.958 103.09 16.958C103.37 16.958 103.608 17.063 103.804 17.273C104.014 17.483 104.119 17.728 104.119 18.008C104.119 18.288 104.014 18.533 103.804 18.743C103.608 18.939 103.37 19.037 103.09 19.037ZM109.708 30.02L109.918 28.298C110.618 28.298 111.164 28.249 111.556 28.151C111.948 28.039 112.242 27.836 112.438 27.542C112.648 27.234 112.816 26.793 112.942 26.219C113.068 25.645 113.222 24.896 113.404 23.972L115.042 24.287C114.986 24.539 114.923 24.819 114.853 25.127C114.783 25.435 114.72 25.743 114.664 26.051C114.622 26.345 114.601 26.604 114.601 26.828C114.601 27.038 114.615 27.234 114.643 27.416C114.671 27.598 114.776 27.752 114.958 27.878C115.14 28.004 115.448 28.109 115.882 28.193C116.316 28.263 116.939 28.298 117.751 28.298C118.045 28.298 118.255 28.382 118.381 28.55C118.521 28.704 118.591 28.893 118.591 29.117C118.591 29.341 118.493 29.551 118.297 29.747C118.101 29.929 117.849 30.02 117.541 30.02C116.687 30.02 116.008 29.978 115.504 29.894C115 29.796 114.615 29.656 114.349 29.474C114.097 29.292 113.915 29.068 113.803 28.802C113.705 28.522 113.628 28.2 113.572 27.836L114.202 27.878C113.978 28.326 113.733 28.69 113.467 28.97C113.215 29.25 112.921 29.467 112.585 29.621C112.249 29.775 111.843 29.88 111.367 29.936C110.905 29.992 110.352 30.02 109.708 30.02ZM113.887 19.499C113.593 19.499 113.341 19.401 113.131 19.205C112.935 18.995 112.837 18.75 112.837 18.47C112.837 18.19 112.935 17.945 113.131 17.735C113.341 17.525 113.593 17.42 113.887 17.42C114.167 17.42 114.405 17.525 114.601 17.735C114.811 17.945 114.916 18.19 114.916 18.47C114.916 18.75 114.811 18.995 114.601 19.205C114.405 19.401 114.167 19.499 113.887 19.499ZM112.459 21.809C112.165 21.809 111.913 21.711 111.703 21.515C111.507 21.305 111.409 21.06 111.409 20.78C111.409 20.5 111.507 20.255 111.703 20.045C111.913 19.835 112.165 19.73 112.459 19.73C112.739 19.73 112.977 19.835 113.173 20.045C113.383 20.255 113.488 20.5 113.488 20.78C113.488 21.06 113.383 21.305 113.173 21.515C112.977 21.711 112.739 21.809 112.459 21.809ZM115.315 21.809C115.021 21.809 114.769 21.711 114.559 21.515C114.363 21.305 114.265 21.06 114.265 20.78C114.265 20.5 114.363 20.255 114.559 20.045C114.769 19.835 115.021 19.73 115.315 19.73C115.595 19.73 115.833 19.835 116.029 20.045C116.239 20.255 116.344 20.5 116.344 20.78C116.344 21.06 116.239 21.305 116.029 21.515C115.833 21.711 115.595 21.809 115.315 21.809ZM117.542 30.02L117.731 28.298C118.529 28.298 119.089 28.221 119.411 28.067C119.733 27.913 119.915 27.64 119.957 27.248C120.013 26.856 120.027 26.31 119.999 25.61L119.6 14.921H121.301L121.721 25.421C121.749 26.163 121.721 26.821 121.637 27.395C121.567 27.969 121.385 28.452 121.091 28.844C120.811 29.236 120.384 29.53 119.81 29.726C119.25 29.922 118.494 30.02 117.542 30.02ZM124.929 29.915L124.509 14.921H126.21L126.63 29.915H124.929ZM137.8 29.915C137.114 29.915 136.498 29.796 135.952 29.558C135.406 29.32 134.972 28.956 134.65 28.466C134.342 27.976 134.188 27.353 134.188 26.597C134.188 25.995 134.419 25.246 134.881 24.35C135.343 23.44 136.148 22.481 137.296 21.473L137.695 22.607L136.267 21.326L137.359 20.024C138.087 20.598 138.759 21.214 139.375 21.872C139.991 22.53 140.488 23.23 140.866 23.972C141.244 24.714 141.433 25.498 141.433 26.324C141.433 26.646 141.377 27.01 141.265 27.416C141.153 27.822 140.964 28.221 140.698 28.613C140.432 28.991 140.061 29.306 139.585 29.558C139.109 29.796 138.514 29.915 137.8 29.915ZM137.8 28.193C138.276 28.193 138.668 28.116 138.976 27.962C139.298 27.794 139.536 27.563 139.69 27.269C139.858 26.975 139.942 26.632 139.942 26.24C139.942 25.89 139.879 25.526 139.753 25.148C139.641 24.756 139.403 24.336 139.039 23.888C138.689 23.426 138.15 22.908 137.422 22.334L138.346 22.292C137.828 22.74 137.38 23.216 137.002 23.72C136.624 24.21 136.337 24.693 136.141 25.169C135.945 25.631 135.847 26.051 135.847 26.429C135.847 27.017 136.029 27.458 136.393 27.752C136.771 28.046 137.24 28.193 137.8 28.193ZM139.396 18.155C139.102 18.155 138.85 18.057 138.64 17.861C138.444 17.651 138.346 17.406 138.346 17.126C138.346 16.846 138.444 16.601 138.64 16.391C138.85 16.181 139.102 16.076 139.396 16.076C139.676 16.076 139.914 16.181 140.11 16.391C140.32 16.601 140.425 16.846 140.425 17.126C140.425 17.406 140.32 17.651 140.11 17.861C139.914 18.057 139.676 18.155 139.396 18.155ZM136.519 18.155C136.225 18.155 135.973 18.057 135.763 17.861C135.567 17.651 135.469 17.406 135.469 17.126C135.469 16.846 135.567 16.601 135.763 16.391C135.973 16.181 136.225 16.076 136.519 16.076C136.799 16.076 137.037 16.181 137.233 16.391C137.443 16.601 137.548 16.846 137.548 17.126C137.548 17.406 137.443 17.651 137.233 17.861C137.037 18.057 136.799 18.155 136.519 18.155ZM141.312 34.787L140.703 33.191C141.725 32.855 142.572 32.47 143.244 32.036C143.93 31.602 144.469 31.14 144.861 30.65C145.267 30.16 145.554 29.663 145.722 29.159C145.89 28.641 145.974 28.144 145.974 27.668C145.974 26.982 145.82 26.289 145.512 25.589C145.218 24.875 144.889 24.203 144.525 23.573L146.058 22.796C146.324 23.286 146.555 23.769 146.751 24.245C146.961 24.721 147.143 25.169 147.297 25.589C147.465 26.009 147.598 26.394 147.696 26.744C147.892 27.346 148.144 27.759 148.452 27.983C148.774 28.193 149.208 28.298 149.754 28.298C150.048 28.298 150.258 28.382 150.384 28.55C150.524 28.704 150.594 28.893 150.594 29.117C150.594 29.341 150.496 29.551 150.3 29.747C150.104 29.929 149.852 30.02 149.544 30.02C148.928 30.02 148.424 29.915 148.032 29.705C147.654 29.481 147.367 29.194 147.171 28.844C146.975 28.48 146.842 28.102 146.772 27.71L147.444 28.088C147.444 29.012 147.234 29.852 146.814 30.608C146.408 31.378 145.883 32.043 145.239 32.603C144.595 33.177 143.923 33.646 143.223 34.01C142.523 34.374 141.886 34.633 141.312 34.787ZM157.639 30.083C157.065 30.083 156.477 30.006 155.875 29.852C155.273 29.684 154.692 29.453 154.132 29.159C153.586 28.865 153.089 28.508 152.641 28.088C152.207 27.654 151.857 27.171 151.591 26.639C151.339 26.107 151.213 25.533 151.213 24.917C151.213 24.287 151.339 23.706 151.591 23.174C151.857 22.642 152.228 22.215 152.704 21.893C153.194 21.557 153.761 21.389 154.405 21.389C155.035 21.389 155.574 21.564 156.022 21.914C156.47 22.25 156.813 22.691 157.051 23.237C157.303 23.769 157.429 24.329 157.429 24.917C157.429 25.729 157.198 26.457 156.736 27.101C156.288 27.731 155.679 28.263 154.909 28.697C154.139 29.131 153.292 29.46 152.368 29.684C151.444 29.908 150.506 30.02 149.554 30.02L149.764 28.298C150.52 28.298 151.192 28.249 151.78 28.151C152.382 28.039 152.9 27.892 153.334 27.71C153.978 27.458 154.482 27.157 154.846 26.807C155.224 26.443 155.49 26.072 155.644 25.694C155.798 25.316 155.875 24.973 155.875 24.665C155.875 24.371 155.812 24.091 155.686 23.825C155.574 23.545 155.406 23.321 155.182 23.153C154.972 22.971 154.713 22.88 154.405 22.88C154.097 22.88 153.817 22.971 153.565 23.153C153.327 23.321 153.138 23.545 152.998 23.825C152.858 24.105 152.788 24.399 152.788 24.707C152.788 25.295 152.935 25.82 153.229 26.282C153.537 26.73 153.929 27.115 154.405 27.437C154.895 27.759 155.413 28.004 155.959 28.172C156.519 28.34 157.051 28.424 157.555 28.424C158.031 28.424 158.381 28.347 158.605 28.193C158.829 28.025 158.941 27.752 158.941 27.374C158.941 27.304 158.92 27.178 158.878 26.996C158.85 26.8 158.738 26.534 158.542 26.198C158.36 25.862 158.045 25.449 157.597 24.959C157.149 24.455 156.519 23.86 155.707 23.174C154.895 22.474 153.845 21.662 152.557 20.738L153.544 19.436C154.888 20.416 155.994 21.284 156.862 22.04C157.744 22.782 158.437 23.433 158.941 23.993C159.459 24.539 159.837 25.022 160.075 25.442C160.327 25.848 160.488 26.212 160.558 26.534C160.628 26.842 160.663 27.136 160.663 27.416C160.663 27.878 160.558 28.312 160.348 28.718C160.152 29.124 159.83 29.453 159.382 29.705C158.948 29.957 158.367 30.083 157.639 30.083ZM162.831 34.745L162.453 33.023C163.293 32.911 164.063 32.75 164.763 32.54C165.477 32.344 166.086 32.057 166.59 31.679C167.108 31.301 167.507 30.804 167.787 30.188C168.067 29.572 168.207 28.802 168.207 27.878C168.207 26.926 168.032 26.135 167.682 25.505C167.332 24.875 166.877 24.56 166.317 24.56C166.023 24.56 165.75 24.672 165.498 24.896C165.246 25.12 165.036 25.421 164.868 25.799C164.714 26.177 164.637 26.59 164.637 27.038C164.637 27.29 164.693 27.5 164.805 27.668C164.917 27.822 165.078 27.948 165.288 28.046C165.512 28.13 165.792 28.193 166.128 28.235C166.464 28.277 166.856 28.298 167.304 28.298H171.735C172.029 28.298 172.239 28.382 172.365 28.55C172.505 28.704 172.575 28.893 172.575 29.117C172.575 29.341 172.477 29.551 172.281 29.747C172.085 29.929 171.833 30.02 171.525 30.02H166.506C165.876 30.02 165.288 29.929 164.742 29.747C164.21 29.565 163.776 29.285 163.44 28.907C163.118 28.515 162.957 28.004 162.957 27.374C162.957 26.786 163.048 26.226 163.23 25.694C163.412 25.148 163.657 24.665 163.965 24.245C164.287 23.811 164.658 23.468 165.078 23.216C165.512 22.964 165.981 22.838 166.485 22.838C167.129 22.838 167.703 23.027 168.207 23.405C168.711 23.783 169.11 24.357 169.404 25.127C169.698 25.883 169.845 26.842 169.845 28.004C169.845 29.306 169.579 30.426 169.047 31.364C168.529 32.316 167.745 33.072 166.695 33.632C165.659 34.192 164.371 34.563 162.831 34.745ZM171.518 30.02L171.707 28.298C172.435 28.298 173.149 28.242 173.849 28.13C174.549 28.018 175.235 27.857 175.907 27.647C176.579 27.437 177.223 27.185 177.839 26.891C178.469 26.583 179.064 26.233 179.624 25.841C179.26 25.519 178.84 25.239 178.364 25.001C177.888 24.763 177.363 24.581 176.789 24.455C176.229 24.315 175.634 24.245 175.004 24.245C174.78 24.245 174.57 24.252 174.374 24.266C174.178 24.28 173.982 24.308 173.786 24.35C173.59 24.378 173.366 24.42 173.114 24.476L172.778 22.88C173.156 22.768 173.534 22.684 173.912 22.628C174.29 22.558 174.654 22.523 175.004 22.523C175.732 22.523 176.39 22.614 176.978 22.796C177.566 22.964 178.098 23.174 178.574 23.426C179.064 23.678 179.519 23.93 179.939 24.182C180.373 24.434 180.793 24.651 181.199 24.833C181.605 25.001 182.025 25.085 182.459 25.085H182.9L183.047 26.597C182.445 26.597 181.892 26.681 181.388 26.849C180.884 27.017 180.387 27.234 179.897 27.5C179.421 27.752 178.917 28.025 178.385 28.319C177.853 28.599 177.265 28.872 176.621 29.138C175.977 29.39 175.235 29.6 174.395 29.768C173.569 29.936 172.61 30.02 171.518 30.02ZM177.377 33.821C177.083 33.821 176.831 33.716 176.621 33.506C176.425 33.31 176.327 33.072 176.327 32.792C176.327 32.512 176.425 32.267 176.621 32.057C176.831 31.847 177.083 31.742 177.377 31.742C177.657 31.742 177.895 31.847 178.091 32.057C178.301 32.267 178.406 32.512 178.406 32.792C178.406 33.072 178.301 33.31 178.091 33.506C177.895 33.716 177.657 33.821 177.377 33.821ZM199.648 30.02C198.892 30.02 198.22 29.915 197.632 29.705C197.058 29.481 196.596 29.11 196.246 28.592C195.91 28.06 195.721 27.325 195.679 26.387L195.343 19.079H197.044L197.38 26.009C197.422 26.667 197.541 27.164 197.737 27.5C197.933 27.822 198.206 28.039 198.556 28.151C198.92 28.249 199.354 28.298 199.858 28.298C200.152 28.298 200.362 28.382 200.488 28.55C200.628 28.704 200.698 28.893 200.698 29.117C200.698 29.341 200.6 29.551 200.404 29.747C200.208 29.929 199.956 30.02 199.648 30.02ZM196.477 27.71C195.679 27.962 194.902 28.088 194.146 28.088C193.39 28.088 192.704 27.976 192.088 27.752C191.472 27.528 190.982 27.206 190.618 26.786C190.254 26.352 190.072 25.834 190.072 25.232C190.072 24.644 190.219 24.091 190.513 23.573C190.821 23.055 191.234 22.593 191.752 22.187C192.284 21.781 192.893 21.445 193.579 21.179C194.279 20.899 195.021 20.71 195.805 20.612L196.099 22.376C195.399 22.404 194.776 22.502 194.23 22.67C193.698 22.824 193.243 23.027 192.865 23.279C192.501 23.531 192.221 23.804 192.025 24.098C191.829 24.392 191.731 24.679 191.731 24.959C191.731 25.267 191.843 25.519 192.067 25.715C192.291 25.911 192.578 26.065 192.928 26.177C193.278 26.275 193.663 26.338 194.083 26.366C194.503 26.38 194.909 26.366 195.301 26.324C195.693 26.268 196.029 26.191 196.309 26.093L196.477 27.71ZM196.036 16.664C195.742 16.664 195.49 16.566 195.28 16.37C195.084 16.16 194.986 15.915 194.986 15.635C194.986 15.355 195.084 15.11 195.28 14.9C195.49 14.69 195.742 14.585 196.036 14.585C196.316 14.585 196.554 14.69 196.75 14.9C196.96 15.11 197.065 15.355 197.065 15.635C197.065 15.915 196.96 16.16 196.75 16.37C196.554 16.566 196.316 16.664 196.036 16.664ZM193.159 16.664C192.865 16.664 192.613 16.566 192.403 16.37C192.207 16.16 192.109 15.915 192.109 15.635C192.109 15.355 192.207 15.11 192.403 14.9C192.613 14.69 192.865 14.585 193.159 14.585C193.439 14.585 193.677 14.69 193.873 14.9C194.083 15.11 194.188 15.355 194.188 15.635C194.188 15.915 194.083 16.16 193.873 16.37C193.677 16.566 193.439 16.664 193.159 16.664ZM199.655 30.02L199.865 28.298C200.313 28.298 200.677 28.27 200.957 28.214C201.237 28.144 201.468 27.983 201.65 27.731C201.846 27.465 202.028 27.052 202.196 26.492C202.364 25.932 202.56 25.148 202.784 24.14L204.359 24.581C204.275 24.931 204.177 25.351 204.065 25.841C203.953 26.331 203.897 26.779 203.897 27.185C203.897 27.409 203.953 27.605 204.065 27.773C204.177 27.941 204.366 28.074 204.632 28.172C204.912 28.256 205.283 28.298 205.745 28.298C206.165 28.298 206.508 28.263 206.774 28.193C207.04 28.123 207.257 27.955 207.425 27.689C207.607 27.423 207.768 26.996 207.908 26.408C208.048 25.82 208.195 25.015 208.349 23.993L209.945 24.287C209.903 24.539 209.854 24.847 209.798 25.211C209.742 25.575 209.686 25.939 209.63 26.303C209.588 26.653 209.567 26.947 209.567 27.185C209.567 27.381 209.609 27.57 209.693 27.752C209.791 27.92 209.973 28.053 210.239 28.151C210.519 28.249 210.932 28.298 211.478 28.298C212.178 28.298 212.682 28.151 212.99 27.857C213.312 27.563 213.473 27.115 213.473 26.513C213.473 26.191 213.466 25.855 213.452 25.505C213.438 25.141 213.41 24.742 213.368 24.308C213.34 23.86 213.291 23.349 213.221 22.775L214.754 22.67C214.838 23.804 214.929 24.735 215.027 25.463C215.139 26.191 215.293 26.765 215.489 27.185C215.699 27.591 215.979 27.878 216.329 28.046C216.679 28.214 217.141 28.298 217.715 28.298C218.009 28.298 218.219 28.382 218.345 28.55C218.485 28.704 218.555 28.893 218.555 29.117C218.555 29.341 218.457 29.551 218.261 29.747C218.065 29.929 217.813 30.02 217.505 30.02C217.029 30.02 216.602 29.957 216.224 29.831C215.86 29.691 215.538 29.509 215.258 29.285C214.992 29.047 214.768 28.781 214.586 28.487C214.418 28.179 214.299 27.857 214.229 27.521L214.607 27.647C214.453 28.277 214.208 28.767 213.872 29.117C213.55 29.453 213.165 29.691 212.717 29.831C212.269 29.957 211.793 30.02 211.289 30.02C210.673 30.02 210.169 29.943 209.777 29.789C209.385 29.635 209.077 29.404 208.853 29.096C208.643 28.774 208.503 28.368 208.433 27.878H209.147C208.881 28.48 208.601 28.935 208.307 29.243C208.013 29.551 207.649 29.761 207.215 29.873C206.781 29.971 206.207 30.02 205.493 30.02C205.143 30.02 204.765 29.964 204.359 29.852C203.967 29.74 203.624 29.523 203.33 29.201C203.036 28.865 202.861 28.368 202.805 27.71L203.435 27.584C203.197 28.298 202.903 28.83 202.553 29.18C202.217 29.516 201.811 29.74 201.335 29.852C200.859 29.964 200.299 30.02 199.655 30.02ZM217.497 30.02L217.707 28.298C218.155 28.298 218.519 28.27 218.799 28.214C219.079 28.144 219.31 27.983 219.492 27.731C219.688 27.465 219.87 27.052 220.038 26.492C220.206 25.932 220.402 25.148 220.626 24.14L222.201 24.581C222.145 24.819 222.082 25.092 222.012 25.4C221.942 25.694 221.879 26.002 221.823 26.324C221.767 26.632 221.739 26.919 221.739 27.185C221.739 27.535 221.872 27.808 222.138 28.004C222.404 28.2 222.887 28.298 223.587 28.298C224.007 28.298 224.35 28.263 224.616 28.193C224.882 28.123 225.099 27.955 225.267 27.689C225.449 27.423 225.61 26.996 225.75 26.408C225.89 25.82 226.037 25.015 226.191 23.993L227.787 24.287C227.745 24.539 227.696 24.847 227.64 25.211C227.584 25.575 227.528 25.939 227.472 26.303C227.43 26.653 227.409 26.947 227.409 27.185C227.409 27.381 227.451 27.57 227.535 27.752C227.633 27.92 227.815 28.053 228.081 28.151C228.361 28.249 228.774 28.298 229.32 28.298C229.726 28.298 230.076 28.249 230.37 28.151C230.678 28.053 230.909 27.871 231.063 27.605C231.231 27.339 231.315 26.968 231.315 26.492C231.315 25.96 231.189 25.295 230.937 24.497C230.699 23.685 230.426 22.88 230.118 22.082L231.819 21.452C232.001 21.9 232.169 22.411 232.323 22.985C232.491 23.559 232.631 24.126 232.743 24.686C232.855 25.246 232.911 25.736 232.911 26.156C232.911 26.8 232.827 27.367 232.659 27.857C232.491 28.347 232.253 28.753 231.945 29.075C231.637 29.383 231.259 29.621 230.811 29.789C230.363 29.943 229.859 30.02 229.299 30.02C228.641 30.02 228.102 29.943 227.682 29.789C227.262 29.635 226.94 29.404 226.716 29.096C226.492 28.774 226.345 28.368 226.275 27.878H226.989C226.723 28.48 226.443 28.935 226.149 29.243C225.855 29.551 225.491 29.761 225.057 29.873C224.623 29.971 224.049 30.02 223.335 30.02C222.985 30.02 222.607 29.964 222.201 29.852C221.809 29.74 221.466 29.523 221.172 29.201C220.878 28.865 220.703 28.368 220.647 27.71L221.277 27.584C221.039 28.298 220.745 28.83 220.395 29.18C220.059 29.516 219.653 29.74 219.177 29.852C218.701 29.964 218.141 30.02 217.497 30.02ZM235.182 34.745L234.804 33.023C235.644 32.911 236.414 32.75 237.114 32.54C237.828 32.344 238.437 32.057 238.941 31.679C239.459 31.301 239.858 30.804 240.138 30.188C240.418 29.572 240.558 28.802 240.558 27.878C240.558 26.926 240.383 26.135 240.033 25.505C239.683 24.875 239.228 24.56 238.668 24.56C238.374 24.56 238.101 24.672 237.849 24.896C237.597 25.12 237.387 25.421 237.219 25.799C237.065 26.177 236.988 26.59 236.988 27.038C236.988 27.29 237.044 27.5 237.156 27.668C237.268 27.822 237.429 27.948 237.639 28.046C237.863 28.13 238.143 28.193 238.479 28.235C238.815 28.277 239.207 28.298 239.655 28.298H244.086C244.38 28.298 244.59 28.382 244.716 28.55C244.856 28.704 244.926 28.893 244.926 29.117C244.926 29.341 244.828 29.551 244.632 29.747C244.436 29.929 244.184 30.02 243.876 30.02H238.857C238.227 30.02 237.639 29.929 237.093 29.747C236.561 29.565 236.127 29.285 235.791 28.907C235.469 28.515 235.308 28.004 235.308 27.374C235.308 26.786 235.399 26.226 235.581 25.694C235.763 25.148 236.008 24.665 236.316 24.245C236.638 23.811 237.009 23.468 237.429 23.216C237.863 22.964 238.332 22.838 238.836 22.838C239.48 22.838 240.054 23.027 240.558 23.405C241.062 23.783 241.461 24.357 241.755 25.127C242.049 25.883 242.196 26.842 242.196 28.004C242.196 29.306 241.93 30.426 241.398 31.364C240.88 32.316 240.096 33.072 239.046 33.632C238.01 34.192 236.722 34.563 235.182 34.745ZM236.946 20.654L236.694 19.52C237.058 19.436 237.352 19.366 237.576 19.31C237.8 19.254 238.052 19.191 238.332 19.121L238.227 19.562C237.863 19.45 237.513 19.212 237.177 18.848C236.855 18.484 236.694 18.071 236.694 17.609C236.694 17.189 236.792 16.839 236.988 16.559C237.198 16.265 237.464 16.048 237.786 15.908C238.122 15.768 238.479 15.698 238.857 15.698C239.011 15.698 239.172 15.712 239.34 15.74C239.522 15.768 239.69 15.81 239.844 15.866L239.676 16.916C239.536 16.888 239.403 16.86 239.277 16.832C239.151 16.804 239.011 16.79 238.857 16.79C238.535 16.79 238.283 16.86 238.101 17C237.919 17.126 237.828 17.308 237.828 17.546C237.828 17.84 237.919 18.092 238.101 18.302C238.297 18.512 238.514 18.68 238.752 18.806C239.004 18.918 239.207 18.974 239.361 18.974L238.5 19.058C238.878 18.96 239.228 18.862 239.55 18.764C239.886 18.652 240.187 18.547 240.453 18.449L240.789 19.52C240.453 19.646 240.054 19.779 239.592 19.919C239.144 20.059 238.689 20.192 238.227 20.318C237.765 20.444 237.338 20.556 236.946 20.654ZM243.87 30.02L244.08 28.298C244.472 28.298 244.801 28.214 245.067 28.046C245.333 27.878 245.592 27.598 245.844 27.206C246.096 26.814 246.369 26.289 246.663 25.631C247.069 24.735 247.468 24.056 247.86 23.594C248.266 23.132 248.665 22.817 249.057 22.649C249.463 22.481 249.862 22.397 250.254 22.397C250.73 22.397 251.171 22.523 251.577 22.775C251.983 23.013 252.34 23.335 252.648 23.741C252.956 24.147 253.194 24.595 253.362 25.085C253.544 25.561 253.635 26.037 253.635 26.513C253.635 27.353 253.488 28.025 253.194 28.529C252.9 29.019 252.522 29.376 252.06 29.6C251.612 29.81 251.143 29.915 250.653 29.915C250.219 29.915 249.659 29.831 248.973 29.663C248.301 29.495 247.447 29.068 246.411 28.382L247.23 27.059C247.916 27.493 248.532 27.794 249.078 27.962C249.638 28.116 250.1 28.193 250.464 28.193C250.87 28.193 251.192 28.137 251.43 28.025C251.668 27.899 251.843 27.724 251.955 27.5C252.067 27.276 252.123 27.024 252.123 26.744C252.123 26.338 252.025 25.932 251.829 25.526C251.633 25.12 251.381 24.784 251.073 24.518C250.779 24.252 250.464 24.119 250.128 24.119C249.876 24.119 249.631 24.189 249.393 24.329C249.155 24.469 248.91 24.728 248.658 25.106C248.406 25.484 248.119 26.03 247.797 26.744C247.461 27.5 247.139 28.102 246.831 28.55C246.537 28.984 246.236 29.306 245.928 29.516C245.62 29.726 245.298 29.859 244.962 29.915C244.64 29.985 244.276 30.02 243.87 30.02Z" fill="#2567CC"/>
<path d="M96.1628 43.0969H98.6457V52.8128C98.6412 53.7034 98.4523 54.4703 98.079 55.1135C97.7056 55.7523 97.1838 56.2448 96.5136 56.5912C95.8479 56.933 95.072 57.104 94.1859 57.104C93.3762 57.104 92.6475 56.96 91.9998 56.6721C91.3565 56.3798 90.846 55.9479 90.4682 55.3767C90.0903 54.8054 89.9014 54.0947 89.9014 53.2446H92.3911C92.3956 53.6179 92.4766 53.9395 92.634 54.2094C92.7959 54.4793 93.0186 54.6862 93.302 54.8302C93.5854 54.9741 93.9115 55.0461 94.2803 55.0461C94.6806 55.0461 95.0203 54.9629 95.2991 54.7964C95.578 54.6255 95.7894 54.3736 95.9334 54.0407C96.0818 53.7079 96.1583 53.2986 96.1628 52.8128V43.0969ZM104.236 57.1242C103.579 57.1242 102.988 57.0073 102.461 56.7733C101.939 56.5349 101.526 56.1841 101.22 55.7208C100.918 55.2575 100.768 54.6862 100.768 54.007C100.768 53.4223 100.876 52.9387 101.092 52.5564C101.307 52.174 101.602 51.8682 101.975 51.6388C102.349 51.4094 102.769 51.2362 103.237 51.1192C103.709 50.9978 104.198 50.9101 104.701 50.8561C105.309 50.7931 105.801 50.7369 106.179 50.6874C106.557 50.6334 106.831 50.5525 107.002 50.4445C107.178 50.3321 107.265 50.1589 107.265 49.925V49.8845C107.265 49.3762 107.115 48.9826 106.813 48.7037C106.512 48.4249 106.078 48.2854 105.511 48.2854C104.913 48.2854 104.438 48.4159 104.087 48.6768C103.741 48.9376 103.507 49.2458 103.386 49.6011L101.105 49.2773C101.285 48.6475 101.582 48.1212 101.996 47.6984C102.41 47.2711 102.916 46.9517 103.514 46.7403C104.112 46.5244 104.773 46.4165 105.497 46.4165C105.997 46.4165 106.494 46.4749 106.989 46.5919C107.483 46.7088 107.935 46.9023 108.345 47.1721C108.754 47.4375 109.082 47.7996 109.33 48.2584C109.582 48.7172 109.708 49.2907 109.708 49.979V56.915H107.36V55.4914H107.279C107.13 55.7793 106.921 56.0492 106.651 56.301C106.386 56.5484 106.051 56.7486 105.646 56.9015C105.246 57.05 104.776 57.1242 104.236 57.1242ZM104.87 55.3295C105.36 55.3295 105.785 55.2327 106.145 55.0393C106.505 54.8414 106.782 54.5805 106.975 54.2567C107.173 53.9328 107.272 53.5797 107.272 53.1974V51.9761C107.196 52.0391 107.065 52.0976 106.881 52.1515C106.701 52.2055 106.498 52.2528 106.273 52.2932C106.048 52.3337 105.826 52.3697 105.605 52.4012C105.385 52.4327 105.194 52.4597 105.032 52.4822C104.668 52.5316 104.341 52.6126 104.054 52.7251C103.766 52.8375 103.539 52.9949 103.372 53.1974C103.206 53.3953 103.122 53.6517 103.122 53.9665C103.122 54.4163 103.287 54.7559 103.615 54.9854C103.943 55.2148 104.362 55.3295 104.87 55.3295ZM114.303 56.915L111.374 46.5514H113.864L115.686 53.8383H115.78L117.642 46.5514H120.105L121.967 53.7979H122.068L123.863 46.5514H126.36L123.425 56.915H120.881L118.938 49.9115H118.796L116.853 56.915H114.303ZM130.508 50.8426V56.915H128.065V43.0969H130.454V48.3124H130.575C130.818 47.7277 131.193 47.2666 131.702 46.9292C132.215 46.5874 132.867 46.4165 133.658 46.4165C134.378 46.4165 135.006 46.5671 135.541 46.8685C136.076 47.1699 136.49 47.6107 136.782 48.191C137.079 48.7712 137.228 49.4797 137.228 50.3163V56.915H134.785V50.6942C134.785 49.997 134.605 49.4549 134.245 49.0681C133.89 48.6768 133.391 48.4811 132.748 48.4811C132.316 48.4811 131.929 48.5756 131.587 48.7645C131.25 48.9489 130.984 49.2165 130.791 49.5674C130.602 49.9182 130.508 50.3433 130.508 50.8426ZM142.7 57.1242C142.043 57.1242 141.451 57.0073 140.925 56.7733C140.403 56.5349 139.99 56.1841 139.684 55.7208C139.382 55.2575 139.232 54.6862 139.232 54.007C139.232 53.4223 139.34 52.9387 139.555 52.5564C139.771 52.174 140.066 51.8682 140.439 51.6388C140.813 51.4094 141.233 51.2362 141.701 51.1192C142.173 50.9978 142.661 50.9101 143.165 50.8561C143.772 50.7931 144.265 50.7369 144.643 50.6874C145.021 50.6334 145.295 50.5525 145.466 50.4445C145.641 50.3321 145.729 50.1589 145.729 49.925V49.8845C145.729 49.3762 145.578 48.9826 145.277 48.7037C144.976 48.4249 144.542 48.2854 143.975 48.2854C143.377 48.2854 142.902 48.4159 142.551 48.6768C142.205 48.9376 141.971 49.2458 141.849 49.6011L139.569 49.2773C139.749 48.6475 140.046 48.1212 140.46 47.6984C140.873 47.2711 141.379 46.9517 141.978 46.7403C142.576 46.5244 143.237 46.4165 143.961 46.4165C144.461 46.4165 144.958 46.4749 145.452 46.5919C145.947 46.7088 146.399 46.9023 146.809 47.1721C147.218 47.4375 147.546 47.7996 147.794 48.2584C148.046 48.7172 148.172 49.2907 148.172 49.979V56.915H145.824V55.4914H145.743C145.594 55.7793 145.385 56.0492 145.115 56.301C144.85 56.5484 144.515 56.7486 144.11 56.9015C143.709 57.05 143.239 57.1242 142.7 57.1242ZM143.334 55.3295C143.824 55.3295 144.249 55.2327 144.609 55.0393C144.969 54.8414 145.246 54.5805 145.439 54.2567C145.637 53.9328 145.736 53.5797 145.736 53.1974V51.9761C145.659 52.0391 145.529 52.0976 145.345 52.1515C145.165 52.2055 144.962 52.2528 144.737 52.2932C144.512 52.3337 144.29 52.3697 144.069 52.4012C143.849 52.4327 143.658 52.4597 143.496 52.4822C143.131 52.5316 142.805 52.6126 142.517 52.7251C142.23 52.8375 142.002 52.9949 141.836 53.1974C141.67 53.3953 141.586 53.6517 141.586 53.9665C141.586 54.4163 141.751 54.7559 142.079 54.9854C142.407 55.2148 142.826 55.3295 143.334 55.3295ZM150.628 56.915V46.5514H152.996V48.2787H153.104C153.293 47.6804 153.617 47.2194 154.075 46.8955C154.539 46.5671 155.067 46.403 155.661 46.403C155.796 46.403 155.947 46.4097 156.113 46.4232C156.284 46.4322 156.426 46.4479 156.538 46.4704V48.7172C156.435 48.6813 156.27 48.6498 156.045 48.6228C155.825 48.5913 155.611 48.5756 155.405 48.5756C154.959 48.5756 154.559 48.6723 154.204 48.8657C153.853 49.0546 153.576 49.3177 153.374 49.6551C153.171 49.9925 153.07 50.3815 153.07 50.8224V56.915H150.628ZM160.957 57.1242C160.301 57.1242 159.709 57.0073 159.183 56.7733C158.661 56.5349 158.247 56.1841 157.941 55.7208C157.64 55.2575 157.489 54.6862 157.489 54.007C157.489 53.4223 157.597 52.9387 157.813 52.5564C158.029 52.174 158.324 51.8682 158.697 51.6388C159.07 51.4094 159.491 51.2362 159.959 51.1192C160.431 50.9978 160.919 50.9101 161.423 50.8561C162.03 50.7931 162.523 50.7369 162.901 50.6874C163.278 50.6334 163.553 50.5525 163.724 50.4445C163.899 50.3321 163.987 50.1589 163.987 49.925V49.8845C163.987 49.3762 163.836 48.9826 163.535 48.7037C163.233 48.4249 162.799 48.2854 162.233 48.2854C161.634 48.2854 161.16 48.4159 160.809 48.6768C160.463 48.9376 160.229 49.2458 160.107 49.6011L157.827 49.2773C158.007 48.6475 158.304 48.1212 158.717 47.6984C159.131 47.2711 159.637 46.9517 160.235 46.7403C160.834 46.5244 161.495 46.4165 162.219 46.4165C162.718 46.4165 163.215 46.4749 163.71 46.5919C164.205 46.7088 164.657 46.9023 165.066 47.1721C165.476 47.4375 165.804 47.7996 166.052 48.2584C166.303 48.7172 166.429 49.2907 166.429 49.979V56.915H164.081V55.4914H164C163.852 55.7793 163.643 56.0492 163.373 56.301C163.108 56.5484 162.772 56.7486 162.368 56.9015C161.967 57.05 161.497 57.1242 160.957 57.1242ZM161.592 55.3295C162.082 55.3295 162.507 55.2327 162.867 55.0393C163.227 54.8414 163.503 54.5805 163.697 54.2567C163.895 53.9328 163.994 53.5797 163.994 53.1974V51.9761C163.917 52.0391 163.787 52.0976 163.602 52.1515C163.422 52.2055 163.22 52.2528 162.995 52.2932C162.77 52.3337 162.548 52.3697 162.327 52.4012C162.107 52.4327 161.916 52.4597 161.754 52.4822C161.389 52.5316 161.063 52.6126 160.775 52.7251C160.487 52.8375 160.26 52.9949 160.094 53.1974C159.927 53.3953 159.844 53.6517 159.844 53.9665C159.844 54.4163 160.008 54.7559 160.337 54.9854C160.665 55.2148 161.083 55.3295 161.592 55.3295ZM174.06 46.5514V48.4406H168.103V46.5514H174.06ZM169.574 44.0684H172.016V53.7979C172.016 54.1262 172.066 54.3781 172.164 54.5535C172.268 54.7245 172.403 54.8414 172.569 54.9044C172.736 54.9674 172.92 54.9988 173.123 54.9988C173.275 54.9988 173.415 54.9876 173.541 54.9651C173.671 54.9426 173.77 54.9224 173.838 54.9044L174.249 56.8138C174.119 56.8588 173.932 56.9083 173.689 56.9623C173.451 57.0162 173.159 57.0477 172.812 57.0567C172.2 57.0747 171.649 56.9825 171.159 56.7801C170.669 56.5732 170.28 56.2538 169.992 55.822C169.708 55.3902 169.569 54.8504 169.574 54.2027V44.0684ZM182.698 56.915H180.027L184.891 43.0969H187.981L192.853 56.915H190.181L186.49 45.9307H186.382L182.698 56.915ZM182.786 51.4971H190.073V53.5077H182.786V51.4971ZM197.008 43.0969V56.915H194.565V43.0969H197.008ZM205.801 50.1544V52.165H199.58V50.1544H205.801ZM207.017 45.1952V43.0969H218.042V45.1952H213.771V56.915H211.288V45.1952H207.017ZM222.502 50.8426V56.915H220.059V43.0969H222.448V48.3124H222.569C222.812 47.7277 223.188 47.2666 223.696 46.9292C224.209 46.5874 224.861 46.4165 225.653 46.4165C226.372 46.4165 227 46.5671 227.535 46.8685C228.07 47.1699 228.484 47.6107 228.777 48.191C229.073 48.7712 229.222 49.4797 229.222 50.3163V56.915H226.779V50.6942C226.779 49.997 226.599 49.4549 226.24 49.0681C225.884 48.6768 225.385 48.4811 224.742 48.4811C224.31 48.4811 223.923 48.5756 223.581 48.7645C223.244 48.9489 222.978 49.2165 222.785 49.5674C222.596 49.9182 222.502 50.3433 222.502 50.8426ZM238.627 60.8014V55.2822H238.526C238.4 55.5341 238.218 55.8018 237.98 56.0851C237.741 56.364 237.426 56.6024 237.035 56.8003C236.644 56.9983 236.151 57.0972 235.557 57.0972C234.743 57.0972 234.015 56.8881 233.371 56.4697C232.728 56.0514 232.22 55.4442 231.846 54.648C231.473 53.8518 231.286 52.8847 231.286 51.7467C231.286 50.5952 231.475 49.6236 231.853 48.8319C232.236 48.0358 232.751 47.4353 233.398 47.0305C234.046 46.6211 234.768 46.4165 235.564 46.4165C236.171 46.4165 236.671 46.5199 237.062 46.7268C237.453 46.9292 237.764 47.1744 237.993 47.4623C238.223 47.7456 238.4 48.0133 238.526 48.2652H238.675V46.5514H241.077V60.8014H238.627ZM236.239 55.0933C236.756 55.0933 237.197 54.9539 237.561 54.675C237.926 54.3916 238.202 53.998 238.391 53.4942C238.58 52.9904 238.675 52.4034 238.675 51.7332C238.675 51.063 238.58 50.4805 238.391 49.9857C238.207 49.4909 237.932 49.1063 237.568 48.8319C237.208 48.5576 236.765 48.4204 236.239 48.4204C235.695 48.4204 235.24 48.5621 234.876 48.8454C234.512 49.1288 234.237 49.5202 234.053 50.0194C233.868 50.5187 233.776 51.09 233.776 51.7332C233.776 52.3809 233.868 52.959 234.053 53.4672C234.242 53.971 234.518 54.3691 234.883 54.6615C235.252 54.9494 235.704 55.0933 236.239 55.0933ZM246.569 57.1242C245.912 57.1242 245.321 57.0073 244.794 56.7733C244.272 56.5349 243.859 56.1841 243.553 55.7208C243.251 55.2575 243.101 54.6862 243.101 54.007C243.101 53.4223 243.209 52.9387 243.425 52.5564C243.64 52.174 243.935 51.8682 244.308 51.6388C244.682 51.4094 245.102 51.2362 245.57 51.1192C246.042 50.9978 246.531 50.9101 247.034 50.8561C247.642 50.7931 248.134 50.7369 248.512 50.6874C248.89 50.6334 249.164 50.5525 249.335 50.4445C249.511 50.3321 249.598 50.1589 249.598 49.925V49.8845C249.598 49.3762 249.448 48.9826 249.146 48.7037C248.845 48.4249 248.411 48.2854 247.844 48.2854C247.246 48.2854 246.771 48.4159 246.42 48.6768C246.074 48.9376 245.84 49.2458 245.719 49.6011L243.438 49.2773C243.618 48.6475 243.915 48.1212 244.329 47.6984C244.743 47.2711 245.249 46.9517 245.847 46.7403C246.445 46.5244 247.106 46.4165 247.83 46.4165C248.33 46.4165 248.827 46.4749 249.322 46.5919C249.816 46.7088 250.268 46.9023 250.678 47.1721C251.087 47.4375 251.415 47.7996 251.663 48.2584C251.915 48.7172 252.041 49.2907 252.041 49.979V56.915H249.693V55.4914H249.612C249.463 55.7793 249.254 56.0492 248.984 56.301C248.719 56.5484 248.384 56.7486 247.979 56.9015C247.579 57.05 247.109 57.1242 246.569 57.1242ZM247.203 55.3295C247.693 55.3295 248.118 55.2327 248.478 55.0393C248.838 54.8414 249.115 54.5805 249.308 54.2567C249.506 53.9328 249.605 53.5797 249.605 53.1974V51.9761C249.529 52.0391 249.398 52.0976 249.214 52.1515C249.034 52.2055 248.831 52.2528 248.606 52.2932C248.381 52.3337 248.159 52.3697 247.938 52.4012C247.718 52.4327 247.527 52.4597 247.365 52.4822C247.001 52.5316 246.674 52.6126 246.387 52.7251C246.099 52.8375 245.872 52.9949 245.705 53.1974C245.539 53.3953 245.455 53.6517 245.455 53.9665C245.455 54.4163 245.62 54.7559 245.948 54.9854C246.276 55.2148 246.695 55.3295 247.203 55.3295ZM259.318 56.915V43.0969H268.305V45.1952H261.821V48.9466H267.839V51.045H261.821V54.8167H268.359V56.915H259.318ZM278.942 49.2907L276.715 49.5336C276.652 49.3087 276.542 49.0973 276.384 48.8994C276.232 48.7015 276.025 48.5418 275.764 48.4204C275.503 48.2989 275.183 48.2382 274.806 48.2382C274.297 48.2382 273.87 48.3484 273.524 48.5688C273.182 48.7892 273.013 49.0748 273.018 49.4257C273.013 49.7271 273.123 49.9722 273.348 50.1611C273.578 50.3501 273.955 50.5052 274.482 50.6267L276.25 51.0045C277.23 51.2159 277.959 51.551 278.436 52.0099C278.917 52.4687 279.16 53.0692 279.164 53.8113C279.16 54.4636 278.969 55.0393 278.591 55.5386C278.217 56.0334 277.698 56.4202 277.032 56.6991C276.366 56.978 275.602 57.1175 274.738 57.1175C273.47 57.1175 272.449 56.8521 271.675 56.3213C270.901 55.786 270.44 55.0416 270.292 54.088L272.674 53.8586C272.781 54.3264 273.011 54.6795 273.362 54.9179C273.713 55.1563 274.169 55.2755 274.731 55.2755C275.312 55.2755 275.777 55.1563 276.128 54.9179C276.483 54.6795 276.661 54.3849 276.661 54.034C276.661 53.7371 276.546 53.492 276.317 53.2986C276.092 53.1051 275.741 52.9567 275.264 52.8532L273.497 52.4822C272.503 52.2752 271.767 51.9266 271.29 51.4363C270.814 50.9416 270.577 50.3163 270.582 49.5606C270.577 48.9219 270.751 48.3686 271.101 47.9008C271.457 47.4285 271.949 47.0642 272.579 46.8078C273.213 46.5469 273.944 46.4165 274.772 46.4165C275.986 46.4165 276.942 46.6751 277.639 47.1924C278.341 47.7097 278.775 48.4091 278.942 49.2907ZM286.353 46.5514V48.4406H280.396V46.5514H286.353ZM281.867 44.0684H284.309V53.7979C284.309 54.1262 284.358 54.3781 284.457 54.5535C284.561 54.7245 284.696 54.8414 284.862 54.9044C285.029 54.9674 285.213 54.9988 285.416 54.9988C285.568 54.9988 285.708 54.9876 285.834 54.9651C285.964 54.9426 286.063 54.9224 286.131 54.9044L286.542 56.8138C286.412 56.8588 286.225 56.9083 285.982 56.9623C285.744 57.0162 285.452 57.0477 285.105 57.0567C284.493 57.0747 283.942 56.9825 283.452 56.7801C282.962 56.5732 282.573 56.2538 282.285 55.822C282.001 55.3902 281.862 54.8504 281.867 54.2027V44.0684ZM289.901 57.0635C289.491 57.0635 289.141 56.9195 288.848 56.6317C288.556 56.3438 288.412 55.9929 288.416 55.5791C288.412 55.1743 288.556 54.8279 288.848 54.54C289.141 54.2522 289.491 54.1082 289.901 54.1082C290.297 54.1082 290.641 54.2522 290.933 54.54C291.23 54.8279 291.381 55.1743 291.385 55.5791C291.381 55.8535 291.309 56.1031 291.169 56.328C291.034 56.5529 290.854 56.7329 290.629 56.8678C290.409 56.9983 290.166 57.0635 289.901 57.0635Z" fill="#64ADE0"/>
</svg>
