<svg width="98" height="90" viewBox="0 0 98 90" fill="none" xmlns="http://www.w3.org/2000/svg">
<g id="fi_1540669" clip-path="url(#clip0_166_8084)">
<g id="performance">
<path id="Vector" d="M87.295 49.3965H85.5294V12.8671C85.5258 11.6572 85.0436 10.4979 84.188 9.64235C83.3325 8.78681 82.1732 8.30457 80.9633 8.30096H53.8402C52.8355 5.90311 51.6446 3.58758 50.2785 1.37559C50.1297 1.17711 49.9367 1.01601 49.7147 0.905051C49.4928 0.794094 49.2481 0.736328 49 0.736328C48.7519 0.736328 48.5072 0.794094 48.2853 0.905051C48.0634 1.01601 47.8704 1.17711 47.7215 1.37559C46.3554 3.58758 45.1646 5.90311 44.1599 8.30096H17.0368C15.8269 8.30457 14.6675 8.78681 13.812 9.64235C12.9565 10.4979 12.4742 11.6572 12.4706 12.8671V49.3965H10.705C9.56096 49.4006 8.45975 49.8322 7.61769 50.6067C6.77563 51.3812 6.25357 52.4425 6.15406 53.5822L3.61222 84.0234C3.56305 84.6522 3.643 85.2844 3.84717 85.8812C4.05133 86.478 4.37539 87.0267 4.79943 87.4937C5.22732 87.9593 5.74725 88.3309 6.32629 88.5851C6.90532 88.8392 7.53083 88.9703 8.16318 88.9701H89.8369C90.4692 88.9703 91.0947 88.8392 91.6738 88.5851C92.2528 88.3309 92.7727 87.9593 93.2006 87.4937C93.6246 87.0267 93.9487 86.478 94.1529 85.8812C94.357 85.2844 94.437 84.6522 94.3878 84.0234L91.846 53.5822C91.7465 52.4425 91.2244 51.3812 90.3823 50.6067C89.5403 49.8322 88.4391 49.4006 87.295 49.3965ZM49 26.6113C49.5023 26.9918 50.5221 29.0771 50.5221 32.6539C50.5221 36.2307 49.5023 38.316 49 38.6965C48.4977 38.316 47.478 36.2307 47.478 32.6539C47.478 29.0771 48.4977 26.9918 49 26.6113ZM15.5147 12.8671C15.5147 12.4635 15.6751 12.0763 15.9605 11.7909C16.246 11.5054 16.6331 11.3451 17.0368 11.3451H42.9574C41.0202 16.5928 39.9808 22.1294 39.8829 27.7224C36.7346 28.9331 34.0284 31.0719 32.123 33.8552C30.2176 36.6386 29.2029 39.9352 29.2133 43.3083V49.3965C29.2132 49.7474 29.3343 50.0876 29.5562 50.3594C29.7781 50.6312 30.0871 50.818 30.4309 50.8882L43.0183 53.3996L45.0122 53.7953C46.3669 57.7526 47.478 60.3706 47.5997 60.6598C47.7192 60.9316 47.9153 61.1628 48.1639 61.3251C48.4126 61.4874 48.7031 61.5738 49 61.5738C49.2969 61.5738 49.5875 61.4874 49.8361 61.3251C50.0848 61.1628 50.2808 60.9316 50.4003 60.6598C50.5221 60.3706 51.6332 57.7526 52.9878 53.7953L59.3652 52.5168L67.5691 50.8882C67.9129 50.818 68.2219 50.6312 68.4438 50.3594C68.6657 50.0876 68.7869 49.7474 68.7868 49.3965V43.3083C68.7972 39.9352 67.7824 36.6386 65.877 33.8552C63.9716 31.0719 61.2655 28.9331 58.1172 27.7224C58.0192 22.1294 56.9798 16.5928 55.0426 11.3451H80.9633C81.3669 11.3451 81.7541 11.5054 82.0395 11.7909C82.325 12.0763 82.4853 12.4635 82.4853 12.8671V64.6171C82.4853 65.0208 82.325 65.408 82.0395 65.6934C81.7541 65.9788 81.3669 66.1392 80.9633 66.1392H17.0368C16.6331 66.1392 16.246 65.9788 15.9605 65.6934C15.6751 65.408 15.5147 65.0208 15.5147 64.6171V12.8671ZM13.1403 79.8377L14.1144 68.1027C14.9295 68.7981 15.9653 69.1812 17.0368 69.1833H80.9633C82.0364 69.1758 83.0721 68.7874 83.8856 68.0874L84.8749 79.8377H13.1403Z" fill="#64ADE0"/>
<path id="Vector_2" d="M67.2653 61.5724V58.5283H65.7433H64.2212V61.5724H65.7433H67.2653Z" fill="#64ADE0"/>
<path id="Vector_3" d="M67.2653 57.006V53.9619H65.7433H64.2212V57.006H65.7433H67.2653Z" fill="#64ADE0"/>
<path id="Vector_4" d="M62.6989 64.6164V61.5723H61.1768H59.6548V64.6164H61.1768H62.6989Z" fill="#64ADE0"/>
<path id="Vector_5" d="M62.6989 60.0501V58.5281V53.9619H61.1768H59.6548V60.0501H61.1768H62.6989Z" fill="#64ADE0"/>
<path id="Vector_6" d="M58.1327 61.5724V58.5283H56.6107H55.0886V61.5724H56.6107H58.1327Z" fill="#64ADE0"/>
<path id="Vector_7" d="M58.1327 57.006V53.9619H56.6107H55.0886V57.006H56.6107H58.1327Z" fill="#64ADE0"/>
<path id="Vector_8" d="M45.9563 76.7935V78.3156H52.0445V76.7935V75.2715H45.9563V76.7935Z" fill="#64ADE0"/>
<path id="Vector_9" d="M42.9123 61.5724V58.5283H41.3902H39.8682V61.5724H41.3902H42.9123Z" fill="#64ADE0"/>
<path id="Vector_10" d="M42.9123 57.006V53.9619H41.3902H39.8682V57.006H41.3902H42.9123Z" fill="#64ADE0"/>
<path id="Vector_11" d="M38.3461 64.6164V61.5723H36.8241H35.302V64.6164H36.8241H38.3461Z" fill="#64ADE0"/>
<path id="Vector_12" d="M38.3461 60.0501V53.9619H36.8241H35.302V60.0501H36.8241H38.3461Z" fill="#64ADE0"/>
<path id="Vector_13" d="M33.78 61.5724V58.5283H32.2579H30.7358V61.5724H32.2579H33.78Z" fill="#64ADE0"/>
<path id="Vector_14" d="M33.78 57.006V53.9619H32.2579H30.7358V57.006H32.2579H33.78Z" fill="#64ADE0"/>
<path id="Vector_15" d="M52.0445 75.2715H45.9563V78.3156H52.0445V75.2715Z" fill="#2567CC"/>
<path id="Vector_16" d="M91.8417 53.5864C91.7474 52.445 91.2277 51.3808 90.3856 50.6047C89.5435 49.8286 88.4405 49.3972 87.2953 49.3961H85.5297V12.8667C85.5297 11.6557 85.0486 10.4943 84.1923 9.63795C83.3359 8.78162 82.1745 8.30055 80.9635 8.30055H53.8404C52.8396 5.90026 51.6465 3.58477 50.2727 1.3767C50.1255 1.17778 49.9337 1.01614 49.7127 0.904753C49.4917 0.793372 49.2477 0.735352 49.0003 0.735352C48.7528 0.735352 48.5088 0.793372 48.2878 0.904753C48.0668 1.01614 47.875 1.17778 47.7278 1.3767C46.354 3.58477 45.1609 5.90026 44.1601 8.30055H17.037C15.826 8.30055 14.6646 8.78162 13.8083 9.63795C12.9519 10.4943 12.4709 11.6557 12.4709 12.8667V49.3961H10.7053C9.56177 49.3974 8.46037 49.8277 7.61882 50.6018C6.77727 51.376 6.25683 52.4378 6.1604 53.5772L3.61856 84.0184C3.56529 84.6478 3.64319 85.2815 3.84734 85.8792C4.05149 86.477 4.37745 87.0259 4.8046 87.4913C5.23175 87.9566 5.75081 88.3283 6.32896 88.5827C6.9071 88.8372 7.53176 88.969 8.16343 88.9697H89.8371C90.4688 88.969 91.0934 88.8372 91.6716 88.5827C92.2497 88.3283 92.7688 87.9566 93.1959 87.4913C93.6231 87.0259 93.949 86.477 94.1532 85.8792C94.3573 85.2815 94.4352 84.6478 94.382 84.0184L91.8417 53.5864ZM14.1192 68.1007C14.9335 68.7947 15.9672 69.1781 17.037 69.1829H80.9635C82.0371 69.1783 83.074 68.792 83.8889 68.0931L84.8752 79.8373H13.136L14.1192 68.1007ZM58.0367 30.996C60.3519 32.1122 62.304 33.8606 63.6676 36.0392C65.0312 38.2178 65.7507 40.7377 65.7429 43.3079V48.1496L54.0839 50.4798C56.1489 44.1595 57.4753 37.6213 58.0367 30.996ZM39.9638 30.996C40.5268 37.621 41.8547 44.1586 43.9212 50.4783L32.2576 48.1496V43.3079C32.2498 40.7377 32.9693 38.2178 34.3329 36.0392C35.6965 33.8606 37.6487 32.1122 39.9638 30.996ZM42.912 28.0873C42.9362 24.3798 43.4303 20.6904 44.3823 17.1072C45.6275 18.2927 47.281 18.9539 49.0003 18.9539C50.7196 18.9539 52.373 18.2927 53.6182 17.1072C54.5703 20.6904 55.0643 24.3798 55.0885 28.0873C55.0885 38.1329 51.1662 50.0628 49.0003 55.8923C46.8329 50.0658 42.912 38.1329 42.912 28.0873ZM49.0003 5.25643C50.4401 7.9779 51.6517 10.8141 52.6228 13.7358C52.2295 14.355 51.6974 14.8739 51.0686 15.2515C50.4398 15.629 49.7316 15.8548 49.0003 15.9108C48.2692 15.8551 47.5612 15.6298 46.9324 15.2528C46.3036 14.8758 45.7713 14.3574 45.3778 13.7389C46.3487 10.8161 47.5603 7.97888 49.0003 5.25643ZM15.515 12.8667C15.515 12.463 15.6753 12.0759 15.9608 11.7905C16.2462 11.505 16.6334 11.3447 17.037 11.3447H42.9546C41.0213 16.5919 39.982 22.1263 39.8801 27.7174C36.7323 28.93 34.0271 31.0699 32.1223 33.8539C30.2176 36.6379 29.2032 39.9347 29.2135 43.3079V49.3961C29.2134 49.747 29.3346 50.0871 29.5565 50.359C29.7784 50.6308 30.0874 50.8176 30.4311 50.8878L45.0049 53.8101C46.361 57.7538 47.4828 60.3839 47.6015 60.6594C47.7189 60.933 47.914 61.1662 48.1626 61.3301C48.4112 61.494 48.7025 61.5813 49.0003 61.5813C49.298 61.5813 49.5893 61.494 49.8379 61.3301C50.0865 61.1662 50.2816 60.933 50.399 60.6594C50.5178 60.3824 51.6395 57.7522 52.9957 53.8101L67.5694 50.8878C67.9132 50.8176 68.2222 50.6308 68.444 50.359C68.6659 50.0871 68.7871 49.747 68.787 49.3961V43.3079C68.7973 39.9347 67.7829 36.6379 65.8782 33.8539C63.9735 31.0699 61.2682 28.93 58.1204 27.7174C58.0185 22.1263 56.9792 16.5919 55.0459 11.3447H80.9635C81.3672 11.3447 81.7543 11.505 82.0398 11.7905C82.3252 12.0759 82.4856 12.463 82.4856 12.8667V64.6167C82.4856 65.0204 82.3252 65.4075 82.0398 65.693C81.7543 65.9784 81.3672 66.1388 80.9635 66.1388H17.037C16.6334 66.1388 16.2462 65.9784 15.9608 65.693C15.6753 65.4075 15.515 65.0204 15.515 64.6167V12.8667ZM90.9543 85.4354C90.8129 85.591 90.6403 85.715 90.4479 85.7994C90.2554 85.8838 90.0473 85.9268 89.8371 85.9255H8.16343C7.95267 85.9251 7.74431 85.8808 7.55153 85.7957C7.35876 85.7105 7.18578 85.5862 7.04356 85.4306C6.90133 85.2751 6.79295 85.0917 6.72529 84.8921C6.65763 84.6925 6.63217 84.481 6.6505 84.2711L9.19386 53.8208C9.22704 53.4431 9.40076 53.0917 9.68065 52.8361C9.96054 52.5804 10.3262 52.4392 10.7053 52.4402H12.4709V56.734C12.132 57.1831 11.9282 57.7195 11.8833 58.2804L10.1025 79.5892C10.0683 80.0075 10.121 80.4284 10.2572 80.8254C10.3935 81.2224 10.6103 81.587 10.8942 81.8961C11.1781 82.2053 11.5228 82.4524 11.9068 82.622C12.2907 82.7916 12.7056 82.8799 13.1253 82.8814H84.8752C85.2953 82.881 85.7107 82.7935 86.0952 82.6243C86.4797 82.4551 86.8249 82.208 87.109 81.8986C87.3931 81.5892 87.6099 81.2242 87.7457 80.8267C87.8815 80.4291 87.9334 80.0078 87.898 79.5892L86.1202 58.3047C86.0755 57.7364 85.8707 57.1923 85.5297 56.7355V52.4402H87.2953C87.6754 52.4411 88.0415 52.5842 88.3215 52.8413C88.6015 53.0985 88.7751 53.4512 88.8082 53.8299L91.35 84.2711C91.3696 84.4821 91.3444 84.6948 91.2762 84.8954C91.208 85.096 91.0983 85.28 90.9543 85.4354Z" fill="#2567CC"/>
<path id="Vector_17" d="M53.5667 32.6538C53.5667 28.2551 52.139 23.5215 49.0005 23.5215C45.862 23.5215 44.4343 28.2551 44.4343 32.6538C44.4343 37.0526 45.862 41.7862 49.0005 41.7862C52.139 41.7862 53.5667 37.0526 53.5667 32.6538ZM49.0005 26.6037C49.4982 26.9948 50.5226 29.08 50.5226 32.6538C50.5226 36.2276 49.4982 38.3129 49.0005 38.704C48.5028 38.3129 47.4784 36.2276 47.4784 32.6538C47.4784 29.08 48.5028 26.9948 49.0005 26.6037Z" fill="#2567CC"/>
<path id="Vector_18" d="M67.2653 53.9619H64.2212V57.006H67.2653V53.9619Z" fill="#2567CC"/>
<path id="Vector_19" d="M62.6989 53.9619H59.6548V60.0501H62.6989V53.9619Z" fill="#2567CC"/>
<path id="Vector_20" d="M58.1327 53.9619H55.0886V57.006H58.1327V53.9619Z" fill="#2567CC"/>
<path id="Vector_21" d="M67.2653 58.5283H64.2212V61.5724H67.2653V58.5283Z" fill="#2567CC"/>
<path id="Vector_22" d="M62.6989 61.5723H59.6548V64.6164H62.6989V61.5723Z" fill="#2567CC"/>
<path id="Vector_23" d="M58.1327 58.5283H55.0886V61.5724H58.1327V58.5283Z" fill="#2567CC"/>
<path id="Vector_24" d="M42.9123 53.9619H39.8682V57.006H42.9123V53.9619Z" fill="#2567CC"/>
<path id="Vector_25" d="M38.3461 53.9619H35.302V60.0501H38.3461V53.9619Z" fill="#2567CC"/>
<path id="Vector_26" d="M33.78 53.9619H30.7358V57.006H33.78V53.9619Z" fill="#2567CC"/>
<path id="Vector_27" d="M42.9123 58.5283H39.8682V61.5724H42.9123V58.5283Z" fill="#2567CC"/>
<path id="Vector_28" d="M38.3461 61.5723H35.302V64.6164H38.3461V61.5723Z" fill="#2567CC"/>
<path id="Vector_29" d="M33.78 58.5283H30.7358V61.5724H33.78V58.5283Z" fill="#2567CC"/>
</g>
</g>
<defs>
<clipPath id="clip0_166_8084">
<rect width="97.4118" height="89.2941" fill="white" transform="translate(0.294189 0.352539)"/>
</clipPath>
</defs>
</svg>
