<svg width="93" height="92" viewBox="0 0 93 92" fill="none" xmlns="http://www.w3.org/2000/svg">
<g id="fi_2173264" clip-path="url(#clip0_166_8057)">
<path id="Vector" d="M90.6396 65.7868V23.1691C90.6506 22.3768 90.348 21.6122 89.7978 21.042C89.2475 20.4718 88.4942 20.1422 87.702 20.125H51.066C51.1117 20.2315 51.1574 20.3533 51.203 20.4599C51.391 20.9414 51.7023 21.365 52.1057 21.6882C52.5091 22.0115 52.9904 22.223 53.5013 22.3015L56.1345 22.7429C56.8434 22.8634 57.4871 23.2302 57.9521 23.7787C58.4171 24.3272 58.6736 25.0223 58.6763 25.7414V29.7292C58.6736 30.4483 58.4171 31.1433 57.9521 31.6919C57.4871 32.2404 56.8434 32.6072 56.1345 32.7276L53.5013 33.169C52.9904 33.2476 52.5091 33.4591 52.1057 33.7823C51.7023 34.1056 51.391 34.5292 51.203 35.0107C51.1269 35.2086 51.0356 35.4065 50.9595 35.6043C50.7535 36.0797 50.6747 36.6004 50.7307 37.1154C50.7868 37.6304 50.9757 38.122 51.2791 38.5419L52.8316 40.7032C53.2529 41.2903 53.4507 42.0085 53.3893 42.7285C53.3279 43.4485 53.0114 44.1229 52.4968 44.6301L49.6962 47.4307C49.1889 47.9453 48.5145 48.2619 47.7946 48.3232C47.0746 48.3846 46.3563 48.1869 45.7693 47.7656L43.6079 46.2131C43.188 45.9097 42.6964 45.7207 42.1814 45.6647C41.6664 45.6087 41.1457 45.6875 40.6704 45.8935C40.4725 45.9696 40.2746 46.0609 40.0768 46.137C39.5953 46.325 39.1716 46.6363 38.8484 47.0397C38.5251 47.4431 38.3136 47.9244 38.2351 48.4353L37.7937 51.0685C37.6732 51.7774 37.3064 52.4211 36.7579 52.8861C36.2094 53.3511 35.5143 53.6075 34.7952 53.6103H30.8074C30.0883 53.6075 29.3933 53.3511 28.8448 52.8861C28.2962 52.4211 27.9294 51.7774 27.809 51.0685L27.3676 48.4353C27.289 47.9244 27.0775 47.4431 26.7543 47.0397C26.431 46.6363 26.0074 46.325 25.5259 46.137C25.328 46.0609 25.1302 45.9696 24.9323 45.8935C24.4569 45.6875 23.9362 45.6087 23.4212 45.6647C22.9062 45.7207 22.4146 45.9097 21.9947 46.2131L19.8334 47.7656C19.2463 48.1869 18.5281 48.3846 17.8081 48.3232C17.0881 48.2619 16.4137 47.9453 15.9065 47.4307L13.1059 44.6301C12.5913 44.1229 12.2748 43.4485 12.2134 42.7285C12.152 42.0085 12.3498 41.2903 12.771 40.7032L14.3235 38.5419C14.6269 38.122 14.8159 37.6304 14.8719 37.1154C14.928 36.6004 14.8491 36.0797 14.6432 35.6043C14.5671 35.4065 14.4757 35.2086 14.3996 35.0107C14.2116 34.5292 13.9003 34.1056 13.4969 33.7823C13.0935 33.4591 12.6123 33.2476 12.1013 33.169L9.46817 32.7276C8.75923 32.6072 8.11554 32.2404 7.65054 31.6919C7.18555 31.1433 6.92908 30.4483 6.92633 29.7292V25.7414C6.92908 25.0223 7.18555 24.3272 7.65054 23.7787C8.11554 23.2302 8.75923 22.8634 9.46817 22.7429L12.1013 22.3015C12.6123 22.223 13.0935 22.0115 13.4969 21.6882C13.9003 21.365 14.2116 20.9414 14.3996 20.4599C14.4453 20.3533 14.491 20.2315 14.5366 20.125H5.29773C4.50551 20.1422 3.7522 20.4718 3.20195 21.042C2.6517 21.6122 2.34912 22.3768 2.36015 23.1691V65.7868H90.6396ZM58.6763 45.6651C58.6766 45.3252 58.7906 44.9952 59.0003 44.7276C59.2099 44.46 59.5031 44.2703 59.8331 44.1887L60.6398 43.9909C60.8703 43.9315 61.084 43.8193 61.2638 43.6634C61.4437 43.5074 61.5849 43.3118 61.6764 43.092C61.7679 42.8721 61.8071 42.6341 61.791 42.3966C61.7748 42.159 61.7038 41.9285 61.5835 41.723L61.1421 41.0076C60.971 40.716 60.9007 40.3761 60.942 40.0406C60.9833 39.705 61.1338 39.3923 61.3704 39.1507L64.0035 36.5176C64.2451 36.281 64.5578 36.1305 64.8934 36.0892C65.2289 36.0479 65.5688 36.1182 65.8605 36.2893L66.5758 36.7307C66.7812 36.851 67.0118 36.922 67.2494 36.9382C67.4869 36.9543 67.7249 36.9151 67.9448 36.8236C68.1646 36.7321 68.3602 36.5909 68.5162 36.411C68.6721 36.2312 68.7843 36.0175 68.8437 35.787L69.0416 34.9803C69.1231 34.6503 69.3128 34.3571 69.5804 34.1475C69.848 33.9378 70.178 33.8238 70.5179 33.8235H74.2318C74.5717 33.8238 74.9017 33.9378 75.1693 34.1475C75.4369 34.3571 75.6266 34.6503 75.7082 34.9803L75.906 35.787C75.9655 36.0175 76.0776 36.2312 76.2336 36.411C76.3895 36.5909 76.5851 36.7321 76.805 36.8236C77.0248 36.9151 77.2628 36.9543 77.5004 36.9382C77.7379 36.922 77.9685 36.851 78.1739 36.7307L78.8893 36.2893C79.1809 36.1182 79.5208 36.0479 79.8564 36.0892C80.1919 36.1305 80.5046 36.281 80.7462 36.5176L83.3793 39.1507C83.6159 39.3923 83.7665 39.705 83.8077 40.0406C83.849 40.3761 83.7787 40.716 83.6077 41.0076L83.1663 41.723C83.0459 41.9285 82.9749 42.159 82.9588 42.3966C82.9426 42.6341 82.9818 42.8721 83.0733 43.092C83.1648 43.3118 83.306 43.5074 83.4859 43.6634C83.6658 43.8193 83.8794 43.9315 84.1099 43.9909L84.9166 44.1887C85.2466 44.2703 85.5398 44.46 85.7494 44.7276C85.9591 44.9952 86.0731 45.3252 86.0734 45.6651V49.379C86.0731 49.7189 85.9591 50.0489 85.7494 50.3165C85.5398 50.5841 85.2466 50.7738 84.9166 50.8554L84.1099 51.0532C83.8794 51.1127 83.6658 51.2248 83.4859 51.3808C83.306 51.5367 83.1648 51.7323 83.0733 51.9522C82.9818 52.172 82.9426 52.41 82.9588 52.6476C82.9749 52.8851 83.0459 53.1157 83.1663 53.3211L83.6077 54.0365C83.7787 54.3281 83.849 54.668 83.8077 55.0036C83.7665 55.3391 83.6159 55.6518 83.3793 55.8934L80.7462 58.5265C80.5046 58.7631 80.1919 58.9137 79.8564 58.9549C79.5208 58.9962 79.1809 58.9259 78.8893 58.7549L78.1739 58.3135C77.9685 58.1931 77.7379 58.1221 77.5004 58.106C77.2628 58.0898 77.0248 58.129 76.805 58.2205C76.5851 58.312 76.3895 58.4532 76.2336 58.6331C76.0776 58.813 75.9655 59.0266 75.906 59.2571L75.7082 60.0638C75.6266 60.3938 75.4369 60.687 75.1693 60.8966C74.9017 61.1063 74.5717 61.2203 74.2318 61.2206H70.5179C70.178 61.2203 69.848 61.1063 69.5804 60.8966C69.3128 60.687 69.1231 60.3938 69.0416 60.0638L68.8437 59.2571C68.7843 59.0266 68.6721 58.813 68.5162 58.6331C68.3602 58.4532 68.1646 58.312 67.9448 58.2205C67.7249 58.129 67.4869 58.0898 67.2494 58.106C67.0118 58.1221 66.7812 58.1931 66.5758 58.3135L65.8605 58.7549C65.5688 58.9259 65.2289 58.9962 64.8934 58.9549C64.5578 58.9137 64.2451 58.7631 64.0035 58.5265L61.3704 55.8934C61.1338 55.6518 60.9833 55.3391 60.942 55.0036C60.9007 54.668 60.971 54.3281 61.1421 54.0365L61.5835 53.3211C61.7038 53.1157 61.7748 52.8851 61.791 52.6476C61.8071 52.41 61.7679 52.172 61.6764 51.9522C61.5849 51.7323 61.4437 51.5367 61.2638 51.3808C61.084 51.2248 60.8703 51.1127 60.6398 51.0532L59.8331 50.8554C59.5031 50.7738 59.2099 50.5841 59.0003 50.3165C58.7906 50.0489 58.6766 49.7189 58.6763 49.379V45.6651Z" fill="#64ADE0"/>
<path id="Vector_2" d="M72.3751 53.6101C75.7375 53.6101 78.4633 50.8843 78.4633 47.5218C78.4633 44.1594 75.7375 41.4336 72.3751 41.4336C69.0127 41.4336 66.2869 44.1594 66.2869 47.5218C66.2869 50.8843 69.0127 53.6101 72.3751 53.6101Z" fill="#64ADE0"/>
<path id="Vector_3" d="M37.3678 74.9189L35.8457 84.0513H57.1545L55.6325 74.9189H44.9781H37.3678Z" fill="#64ADE0"/>
<path id="Vector_4" d="M32.8015 39.9115C39.5264 39.9115 44.9779 34.4599 44.9779 27.7351C44.9779 21.0102 39.5264 15.5586 32.8015 15.5586C26.0766 15.5586 20.625 21.0102 20.625 27.7351C20.625 34.4599 26.0766 39.9115 32.8015 39.9115Z" fill="#64ADE0"/>
<g id="Group">
<path id="Vector_5" d="M87.702 18.6026H52.2457C52.2618 18.3194 52.3566 18.0463 52.5196 17.8142L54.0661 15.6513C54.6971 14.7725 54.9946 13.6978 54.9053 12.6196C54.8161 11.5414 54.3459 10.5302 53.579 9.76706L50.7693 6.95582C50.0058 6.18941 48.9946 5.7197 47.9164 5.63074C46.8383 5.54178 45.7637 5.83938 44.885 6.47028L42.7222 8.01669C42.5166 8.16615 42.2761 8.26032 42.0237 8.29017C41.7713 8.32002 41.5155 8.28455 41.2808 8.18716C41.0656 8.09482 40.8485 8.00452 40.6293 7.91624C40.394 7.81987 40.1876 7.66423 40.0302 7.46446C39.8729 7.26469 39.7699 7.02758 39.7313 6.77621L39.293 4.15371C39.1179 3.08633 38.5686 2.11614 37.7433 1.41694C36.9181 0.717743 35.8708 0.335223 34.7892 0.337905H30.8136C29.7322 0.335164 28.6851 0.717469 27.8599 1.41636C27.0346 2.11525 26.4851 3.08508 26.3098 4.15218L25.8714 6.77774C25.8323 7.02911 25.7289 7.26613 25.5714 7.46585C25.4138 7.66557 25.2073 7.82123 24.9719 7.91776C24.7543 8.00452 24.5366 8.09432 24.322 8.18716C24.0871 8.28404 23.8312 8.3191 23.5789 8.28899C23.3265 8.25888 23.0861 8.16461 22.8806 8.01517L20.7178 6.47028C19.8388 5.83957 18.7641 5.54223 17.686 5.63147C16.6079 5.72071 15.5967 6.1907 14.8335 6.95734L12.0238 9.77467C11.257 10.5375 10.7868 11.5485 10.6976 12.6264C10.6083 13.7044 10.9058 14.7789 11.5367 15.6574L13.0831 17.8233C13.2458 18.055 13.3407 18.3275 13.3571 18.6102H5.29777C4.10269 18.6259 2.96249 19.1143 2.12669 19.9687C1.29089 20.823 0.827572 21.9737 0.838141 23.1688V71.8747C0.825546 73.0711 1.28796 74.2237 2.12398 75.0797C2.96 75.9357 4.10136 76.4252 5.29777 76.4408H35.5715L34.5563 82.5291H32.8014C32.5651 82.5291 32.332 82.5841 32.1207 82.6898C31.9093 82.7954 31.7255 82.9489 31.5837 83.1379L27.0176 89.2262C26.848 89.4523 26.7447 89.7212 26.7193 90.0027C26.6939 90.2842 26.7474 90.5672 26.8738 90.8201C27.0002 91.0729 27.1946 91.2855 27.435 91.4341C27.6755 91.5827 27.9525 91.6614 28.2352 91.6614H64.7646C65.0473 91.6614 65.3244 91.5827 65.5648 91.4341C65.8053 91.2855 65.9996 91.0729 66.126 90.8201C66.2524 90.5672 66.3059 90.2842 66.2805 90.0027C66.2551 89.7212 66.1519 89.4523 65.9823 89.2262L61.4161 83.1379C61.2743 82.9489 61.0905 82.7954 60.8791 82.6898C60.6678 82.5841 60.4347 82.5291 60.1984 82.5291H58.4435L57.4283 76.4408H87.702C88.8984 76.4252 90.0398 75.9357 90.8758 75.0797C91.7118 74.2237 92.1743 73.0711 92.1617 71.8747V23.1688C92.1743 21.9723 91.7118 20.8197 90.8758 19.9637C90.0398 19.1078 88.8984 18.6183 87.702 18.6026ZM14.1759 11.9193L16.9857 9.10953C17.2408 8.85387 17.5785 8.69726 17.9385 8.6677C18.2985 8.63815 18.6572 8.73757 18.9506 8.94819L21.112 10.4931C21.7444 10.9456 22.4824 11.228 23.2553 11.3133C24.0282 11.3986 24.8101 11.2839 25.5259 10.9801C25.7086 10.8995 25.8958 10.8279 26.083 10.7503C26.8063 10.4599 27.4426 9.98806 27.9305 9.38021C28.4184 8.77236 28.7414 8.04903 28.8684 7.28002L29.3067 4.65294C29.3663 4.29678 29.5506 3.97341 29.8266 3.74059C30.1026 3.50778 30.4525 3.38068 30.8136 3.38202H34.7892C35.1495 3.38219 35.498 3.51015 35.7728 3.74315C36.0476 3.97614 36.2309 4.29906 36.2899 4.65446L36.7283 7.27849C36.8547 8.04751 37.1773 8.77091 37.665 9.37882C38.1526 9.98673 38.7888 10.4586 39.5121 10.7488C39.7009 10.8234 39.8881 10.901 40.0707 10.9801C40.7867 11.2834 41.5684 11.3979 42.3413 11.3126C43.1141 11.2274 43.8521 10.9452 44.4847 10.4931L46.6521 8.94819C46.9453 8.73839 47.3034 8.63944 47.6627 8.66899C48.022 8.69854 48.3591 8.85465 48.614 9.10953L51.4238 11.9193C51.6789 12.174 51.8353 12.511 51.8651 12.8703C51.8949 13.2296 51.7962 13.5879 51.5866 13.8812L50.0433 16.0456C49.5906 16.6779 49.3081 17.4159 49.2228 18.1889C49.1375 18.9618 49.2523 19.7437 49.5562 20.4595C49.6353 20.6452 49.7084 20.8309 49.786 21.0196C50.0769 21.7429 50.5491 22.3791 51.1572 22.8669C51.7653 23.3548 52.4887 23.6778 53.2578 23.805L55.8834 24.2434C56.2385 24.3028 56.5611 24.4862 56.7938 24.7609C57.0265 25.0357 57.1542 25.3841 57.1543 25.7441V29.7197C57.1542 30.0798 57.0265 30.4282 56.7938 30.7029C56.5611 30.9777 56.2385 31.1611 55.8834 31.2205L53.2578 31.6588C52.4887 31.786 51.7653 32.109 51.1572 32.5969C50.5491 33.0847 50.0769 33.7209 49.786 34.4442C49.7114 34.6329 49.6338 34.8186 49.5562 35.0013C49.2528 35.7172 49.1382 36.499 49.2235 37.2718C49.3088 38.0447 49.591 38.7827 50.0433 39.4152L51.5897 41.5857C51.7989 41.8789 51.8973 42.2368 51.8675 42.5958C51.8377 42.9547 51.6815 43.2914 51.4268 43.5461L48.6171 46.3558C48.3621 46.6107 48.025 46.7668 47.6657 46.7964C47.3064 46.8259 46.9483 46.727 46.6552 46.5172L44.4908 44.9768C43.8585 44.5241 43.1205 44.2415 42.3475 44.1562C41.5745 44.0709 40.7926 44.1858 40.0768 44.4898C39.8942 44.5705 39.707 44.642 39.5197 44.7196C38.7964 45.01 38.1601 45.4819 37.6722 46.0897C37.1844 46.6976 36.8614 47.4209 36.7344 48.1899L36.296 50.817C36.2366 51.1721 36.0532 51.4947 35.7785 51.7274C35.5037 51.9601 35.1553 52.0878 34.7953 52.0879H30.8136C30.4533 52.0877 30.1047 51.9598 29.8299 51.7268C29.5551 51.4938 29.3719 51.1709 29.3128 50.8155L28.8745 48.1914C28.748 47.4224 28.4254 46.699 27.9378 46.0911C27.4501 45.4832 26.8139 45.0113 26.0906 44.7211C25.9019 44.6466 25.7147 44.5689 25.532 44.4898C24.9745 44.2496 24.3735 44.1263 23.7664 44.1275C22.8147 44.1271 21.8867 44.424 21.112 44.9768L18.9506 46.5217C18.6575 46.7315 18.2994 46.8305 17.9401 46.8009C17.5808 46.7714 17.2437 46.6153 16.9887 46.3604L14.179 43.5507C13.9239 43.2959 13.7675 42.9589 13.7377 42.5996C13.7078 42.2403 13.8065 41.8821 14.0161 41.5887L15.5625 39.4244C16.0152 38.792 16.2977 38.054 16.383 37.281C16.4683 36.5081 16.3535 35.7262 16.0496 35.0104C15.9705 34.8247 15.8974 34.639 15.8198 34.4503C15.529 33.7261 15.0565 33.089 14.4479 32.6006C13.8392 32.1121 13.1149 31.7888 12.3449 31.6619L9.71935 31.2235C9.36423 31.1641 9.04167 30.9807 8.80898 30.706C8.57629 30.4312 8.44854 30.0828 8.44844 29.7228V25.7472C8.44854 25.3871 8.57629 25.0387 8.80898 24.764C9.04167 24.4892 9.36423 24.3058 9.71935 24.2464L12.3449 23.8081C13.114 23.6809 13.8375 23.3578 14.4456 22.87C15.0536 22.3822 15.5258 21.746 15.8167 21.0227C15.8913 20.834 15.9689 20.6483 16.0466 20.4656C16.35 19.7497 16.4646 18.9679 16.3793 18.195C16.294 17.4222 16.0117 16.6842 15.5595 16.0516L14.0131 13.8842C13.8027 13.5906 13.7035 13.2318 13.7333 12.8718C13.7632 12.5118 13.92 12.1742 14.1759 11.9193ZM5.29777 21.6467H7.99182C7.21676 22.0154 6.56221 22.5964 6.10419 23.3222C5.64617 24.048 5.40348 24.8889 5.40432 25.7472V29.7228C5.40164 30.8044 5.78416 31.8517 6.48335 32.6769C7.18255 33.5022 8.15274 34.0515 9.22012 34.2265L11.8441 34.6634C12.0953 34.7028 12.332 34.8062 12.5314 34.9638C12.7308 35.1214 12.8862 35.3277 12.9826 35.5629C13.0694 35.7821 13.1592 35.9982 13.2521 36.2144C13.3498 36.4489 13.3856 36.7047 13.356 36.9571C13.3264 37.2095 13.2325 37.4501 13.0831 37.6557L11.5367 39.8186C10.9057 40.6974 10.6082 41.7722 10.6974 42.8504C10.7867 43.9286 11.2568 44.9398 12.0238 45.7029L14.8411 48.5141C15.6045 49.2805 16.6158 49.7502 17.6939 49.8392C18.772 49.9282 19.8466 49.6306 20.7254 48.9996L22.8882 47.4548C23.0939 47.3057 23.3343 47.2117 23.5866 47.1816C23.8388 47.1515 24.0946 47.1863 24.3296 47.2828C24.5447 47.3751 24.7619 47.4654 24.981 47.5537C25.2164 47.6501 25.4228 47.8057 25.5801 48.0055C25.7375 48.2052 25.8405 48.4423 25.8791 48.6937L26.3174 51.3162C26.4922 52.3823 27.0405 53.3515 27.8641 54.0505C28.6878 54.7496 29.7332 55.1329 30.8136 55.132H34.7892C35.8706 55.1348 36.9177 54.7525 37.7429 54.0536C38.5681 53.3547 39.1176 52.3848 39.293 51.3177L39.7313 48.6922C39.7704 48.4408 39.8738 48.2038 40.0314 48.0041C40.189 47.8044 40.3955 47.6487 40.6308 47.5522C40.8485 47.4654 41.0662 47.3756 41.2808 47.2828C41.5156 47.1856 41.7715 47.1504 42.0239 47.1805C42.2763 47.2106 42.5167 47.305 42.7222 47.4548L44.885 48.9996C45.7638 49.6307 46.8386 49.9282 47.9168 49.8389C48.995 49.7497 50.0062 49.2795 50.7693 48.5126L53.579 45.7029C54.3458 44.94 54.8159 43.9291 54.9052 42.8511C54.9944 41.7732 54.697 40.6987 54.0661 39.8201L52.5196 37.6542C52.3702 37.4487 52.2761 37.2081 52.2465 36.9556C52.2169 36.7032 52.2528 36.4474 52.3507 36.2128C52.4441 35.9977 52.5339 35.7811 52.6201 35.5629C52.7165 35.3277 52.8719 35.1214 53.0714 34.9638C53.2708 34.8062 53.5075 34.7028 53.7586 34.6634L56.3826 34.2265C57.45 34.0515 58.4202 33.5022 59.1194 32.6769C59.8186 31.8517 60.2011 30.8044 60.1984 29.7228V25.7472C60.1993 24.8889 59.9566 24.048 59.4986 23.3222C59.0405 22.5964 58.386 22.0154 57.6109 21.6467H87.702C88.0896 21.6664 88.4543 21.8364 88.7186 22.1206C88.9828 22.4048 89.126 22.7808 89.1176 23.1688V64.2644H3.88226V23.1688C3.87384 22.7808 4.01697 22.4048 4.28126 22.1206C4.54555 21.8364 4.91019 21.6664 5.29777 21.6467ZM61.7205 88.6173H31.2793L33.5624 85.5732H59.4374L61.7205 88.6173ZM55.3568 82.5291H37.643L38.6567 76.4408H54.3431L55.3568 82.5291ZM87.702 73.3967H5.29777C4.91019 73.377 4.54555 73.207 4.28126 72.9229C4.01697 72.6387 3.87384 72.2627 3.88226 71.8747V67.3085H89.1176V71.8747C89.126 72.2627 88.9828 72.6387 88.7186 72.9229C88.4543 73.207 88.0896 73.377 87.702 73.3967Z" fill="#2567CC"/>
<path id="Vector_6" d="M59.4602 52.3311L60.2745 52.532L59.8407 53.255C59.4918 53.8368 59.3472 54.5185 59.4299 55.1919C59.5126 55.8653 59.8179 56.4918 60.2973 56.9718L62.9229 59.5959C63.4031 60.0756 64.0298 60.3812 64.7035 60.4639C65.3773 60.5466 66.0593 60.4018 66.6413 60.0525L67.3612 59.6217L67.5652 60.4345C67.7296 61.0936 68.1097 61.6788 68.645 62.0969C69.1804 62.5151 69.8402 62.7421 70.5195 62.742H74.2303C74.9091 62.7419 75.5684 62.5149 76.1034 62.0971C76.6384 61.6792 77.0185 61.0946 77.1831 60.436L77.387 59.6217L78.1085 60.054C78.6903 60.403 79.372 60.5476 80.0454 60.4648C80.7188 60.3821 81.3453 60.0768 81.8253 59.5974L84.4524 56.9718C84.9322 56.4917 85.2377 55.8649 85.3205 55.1912C85.4032 54.5175 85.2584 53.8354 84.909 53.2534L84.4783 52.535L85.2896 52.3326C85.9486 52.1679 86.5336 51.7874 86.9515 51.2518C87.3694 50.7161 87.5961 50.0561 87.5955 49.3768V45.666C87.5956 44.9867 87.3686 44.3269 86.9504 43.7915C86.5323 43.2562 85.9471 42.8761 85.288 42.7117L84.4753 42.5108L84.909 41.7878C85.258 41.2059 85.4026 40.5242 85.3199 39.8508C85.2372 39.1774 84.9318 38.551 84.4524 38.0709L81.8269 35.4469C81.3466 34.9667 80.7196 34.661 80.0455 34.5782C79.3715 34.4955 78.6891 34.6405 78.107 34.9903L77.387 35.421L77.1831 34.6082C77.0187 33.9494 76.6389 33.3644 76.1038 32.9463C75.5688 32.5282 74.9093 32.301 74.2303 32.3008H70.5195C69.8407 32.3009 69.1814 32.5279 68.6463 32.9457C68.1113 33.3635 67.7313 33.9481 67.5667 34.6067L67.3627 35.421L66.6428 34.9887C66.0613 34.6378 65.3789 34.4921 64.7048 34.5749C64.0306 34.6576 63.4037 34.9642 62.9244 35.4454L60.2973 38.0709C59.8176 38.5511 59.512 39.1778 59.4293 39.8515C59.3466 40.5253 59.4914 41.2073 59.8407 41.7893L60.2715 42.5077L59.4602 42.7101C58.8011 42.8749 58.2161 43.2553 57.7983 43.791C57.3804 44.3266 57.1537 44.9866 57.1543 45.666V49.3768C57.1541 50.0558 57.3809 50.7155 57.7987 51.2508C58.2166 51.7862 58.8014 52.1664 59.4602 52.3311ZM60.1984 45.666L61.0097 45.462C61.4714 45.3469 61.8996 45.1252 62.2601 44.8147C62.6206 44.5041 62.9033 44.1134 63.0855 43.6739C63.2677 43.2343 63.3443 42.7582 63.3092 42.2837C63.2741 41.8091 63.1282 41.3495 62.8833 40.9415L62.4495 40.2231L65.0751 37.5991L65.7966 38.0313C66.2043 38.2753 66.6634 38.4205 67.1373 38.4552C67.6111 38.4899 68.0865 38.4132 68.5255 38.2313C68.9644 38.0493 69.3546 37.7671 69.6649 37.4073C69.9752 37.0475 70.197 36.6201 70.3125 36.1592L70.5195 35.3449H74.2318L74.4358 36.1592C74.5512 36.6203 74.773 37.048 75.0834 37.4079C75.3938 37.7679 75.7842 38.0502 76.2233 38.2322C76.6624 38.4142 77.1381 38.4908 77.6121 38.4559C78.0862 38.421 78.5455 38.2756 78.9532 38.0313L79.6732 37.5991L82.2987 40.2231L81.8649 40.943C81.6203 41.3508 81.4747 41.8103 81.4396 42.2845C81.4046 42.7587 81.4811 43.2346 81.6631 43.6739C81.8451 44.1132 82.1275 44.5038 82.4877 44.8143C82.8478 45.1249 83.2757 45.3467 83.7371 45.462L84.5498 45.666V49.3768L83.7386 49.5807C83.2769 49.6958 82.8486 49.9175 82.4881 50.2281C82.1276 50.5386 81.8449 50.9293 81.6627 51.3689C81.4806 51.8084 81.4039 52.2846 81.4391 52.7591C81.4742 53.2336 81.62 53.6933 81.8649 54.1012L82.2987 54.8196L79.6808 57.4437L78.9593 57.0114C78.5516 56.7674 78.0925 56.6223 77.6186 56.5876C77.1447 56.5528 76.6693 56.6295 76.2304 56.8115C75.7915 56.9934 75.4013 57.2756 75.091 57.6354C74.7806 57.9952 74.5589 58.4227 74.4434 58.8835L74.2303 59.6978H70.518L70.314 58.8835C70.2016 58.4209 69.9812 57.9914 69.6709 57.6303C69.3606 57.2692 68.9691 56.9867 68.5286 56.8059C68.0887 56.62 67.6109 56.5413 67.1346 56.5763C66.6583 56.6112 66.1971 56.7588 65.7889 57.0068L65.069 57.4391L62.4511 54.8273L62.8848 54.1073C63.1294 53.6995 63.2751 53.2401 63.3101 52.7658C63.3452 52.2916 63.2686 51.8158 63.0866 51.3764C62.9046 50.9371 62.6222 50.5465 62.2621 50.236C61.9019 49.9255 61.474 49.7037 61.0127 49.5883L60.1984 49.3768V45.666Z" fill="#2567CC"/>
<path id="Vector_7" d="M72.3749 55.1317C73.8801 55.1317 75.3515 54.6854 76.603 53.8492C77.8545 53.0129 78.8299 51.8244 79.4059 50.4338C79.9819 49.0432 80.1327 47.513 79.839 46.0367C79.5454 44.5605 78.8206 43.2045 77.7562 42.1401C76.6919 41.0758 75.3359 40.351 73.8596 40.0574C72.3834 39.7637 70.8532 39.9144 69.4626 40.4904C68.072 41.0664 66.8834 42.0419 66.0472 43.2934C65.211 44.5449 64.7646 46.0163 64.7646 47.5214C64.7671 49.5391 65.5696 51.4734 66.9963 52.9001C68.423 54.3267 70.3573 55.1293 72.3749 55.1317ZM72.3749 42.9553C73.278 42.9553 74.1609 43.2231 74.9118 43.7248C75.6627 44.2265 76.2479 44.9397 76.5935 45.774C76.9391 46.6084 77.0296 47.5265 76.8534 48.4122C76.6772 49.298 76.2423 50.1116 75.6037 50.7502C74.9651 51.3888 74.1515 51.8237 73.2658 51.9999C72.38 52.1761 71.4619 52.0856 70.6275 51.74C69.7932 51.3944 69.08 50.8092 68.5783 50.0583C68.0766 49.3074 67.8088 48.4245 67.8088 47.5214C67.8088 46.3104 68.2898 45.149 69.1462 44.2927C70.0025 43.4363 71.1639 42.9553 72.3749 42.9553Z" fill="#2567CC"/>
<path id="Vector_8" d="M32.8016 41.4332C35.5109 41.4332 38.1593 40.6298 40.4121 39.1246C42.6648 37.6194 44.4205 35.4799 45.4573 32.9769C46.4942 30.4738 46.7654 27.7195 46.2369 25.0622C45.7083 22.405 44.4037 19.9641 42.4879 18.0483C40.5721 16.1326 38.1313 14.8279 35.474 14.2994C32.8168 13.7708 30.0624 14.0421 27.5594 15.0789C25.0563 16.1157 22.9169 17.8715 21.4116 20.1242C19.9064 22.3769 19.103 25.0254 19.103 27.7347C19.1071 31.3665 20.5516 34.8484 23.1197 37.4165C25.6878 39.9846 29.1697 41.4292 32.8016 41.4332ZM32.8016 17.0803C34.9088 17.0803 36.9687 17.7051 38.7208 18.8758C40.4729 20.0466 41.8385 21.7106 42.6449 23.6574C43.4514 25.6042 43.6623 27.7465 43.2512 29.8132C42.8401 31.88 41.8254 33.7784 40.3354 35.2685C38.8453 36.7585 36.9469 37.7733 34.8801 38.1844C32.8134 38.5955 30.6711 38.3845 28.7243 37.5781C26.7775 36.7717 25.1135 35.4061 23.9427 33.6539C22.772 31.9018 22.1471 29.8419 22.1471 27.7347C22.1504 24.9099 23.2739 22.2018 25.2713 20.2044C27.2687 18.207 29.9768 17.0835 32.8016 17.0803Z" fill="#2567CC"/>
<path id="Vector_9" d="M44.978 68.8301H48.0221V71.8742H44.978V68.8301Z" fill="#2567CC"/>
</g>
</g>
<defs>
<clipPath id="clip0_166_8057">
<rect width="92" height="92" fill="white" transform="translate(0.5)"/>
</clipPath>
</defs>
</svg>
