<svg width="99" height="92" viewBox="0 0 99 92" fill="none" xmlns="http://www.w3.org/2000/svg">
<g id="fi_1908695">
<path id="Vector" d="M93.6398 10.9927V4.90447C93.6374 4.09786 93.3159 3.32498 92.7455 2.75461C92.1751 2.18425 91.4023 1.86276 90.5956 1.86035H8.40447C7.59786 1.86276 6.82498 2.18425 6.25461 2.75461C5.68425 3.32498 5.36276 4.09786 5.36035 4.90447V10.9927H93.6398Z" fill="#64ADE0"/>
<path id="Vector_2" d="M58.6325 82.529V75.6189C60.6159 76.1643 62.6636 76.4408 64.7207 76.4408V82.529H73.8531V74.5382C77.9221 72.7601 81.3844 69.834 83.8157 66.1182C86.2471 62.4023 87.5421 58.0581 87.5421 53.6175C87.5421 49.1769 86.2471 44.8327 83.8157 41.1169C81.3844 37.401 77.9221 34.4749 73.8531 32.6968V18.6025H64.7207V30.779C62.6636 30.779 60.6159 31.0555 58.6325 31.6009V24.6908H49.5001V36.6085C46.8013 39.0163 44.7144 42.0319 43.4119 45.406V39.9114H34.2795V82.529H43.4119V61.8138C44.7144 65.1879 46.8013 68.2035 49.5001 70.6113V82.529H58.6325ZM47.9781 53.6099C47.9781 50.2985 48.96 47.0615 50.7997 44.3082C52.6394 41.5549 55.2543 39.4089 58.3136 38.1417C61.3729 36.8745 64.7393 36.5429 67.987 37.189C71.2348 37.835 74.2181 39.4296 76.5596 41.7711C78.9011 44.1126 80.4956 47.0958 81.1417 50.3436C81.7877 53.5913 81.4561 56.9577 80.1889 60.017C78.9217 63.0763 76.7757 65.6912 74.0224 67.5309C71.2691 69.3706 68.0321 70.3525 64.7207 70.3525C60.2812 70.3497 56.0242 68.5849 52.885 65.4456C49.7458 62.3064 47.9809 58.0495 47.9781 53.6099Z" fill="#64ADE0"/>
<path id="Vector_3" d="M19.0591 55.1328H28.1914V82.5299H19.0591V55.1328Z" fill="#64ADE0"/>
<g id="Group">
<path id="Vector_4" d="M90.5957 0.337891H8.40456C7.19353 0.337891 6.03211 0.818969 5.17578 1.67529C4.31946 2.53162 3.83838 3.69304 3.83838 4.90407V87.0952C3.83838 88.3063 4.31946 89.4677 5.17578 90.324C6.03211 91.1803 7.19353 91.6614 8.40456 91.6614H90.5957C91.8068 91.6614 92.9682 91.1803 93.8245 90.324C94.6808 89.4677 95.1619 88.3063 95.1619 87.0952V4.90407C95.1619 3.69304 94.6808 2.53162 93.8245 1.67529C92.9682 0.818969 91.8068 0.337891 90.5957 0.337891ZM80.8119 71.8412C81.568 71.1719 82.2827 70.4572 82.952 69.7012L92.1178 78.8533V83.147L80.8119 71.8412ZM60.1546 81.007V77.5184C61.1605 77.7051 62.1772 77.8276 63.1987 77.8853V81.007H60.1546ZM44.934 81.007V67.7529C45.8364 69.0129 46.8556 70.185 47.9781 71.2537V81.007H44.934ZM41.8899 45.2158C39.8605 50.6279 39.8605 56.592 41.8899 62.0041V81.007H35.8016V41.4335H41.8899V45.2158ZM57.1104 30.4914C54.9506 31.2014 52.9012 32.2113 51.0222 33.4914V26.2129H57.1104V30.4914ZM64.7207 32.3011C68.9352 32.3011 73.0551 33.5509 76.5593 35.8923C80.0635 38.2338 82.7947 41.5617 84.4075 45.4554C86.0203 49.3491 86.4423 53.6336 85.6201 57.7671C84.7979 61.9006 82.7684 65.6975 79.7883 68.6776C76.8083 71.6577 73.0114 73.6871 68.8779 74.5093C64.7444 75.3315 60.4599 74.9096 56.5662 73.2967C52.6725 71.6839 49.3445 68.9527 47.0031 65.4485C44.6616 61.9443 43.4119 57.8244 43.4119 53.61C43.418 47.9604 45.6649 42.5439 49.6598 38.549C53.6547 34.5541 59.0711 32.3072 64.7207 32.3011ZM72.331 30.4914C70.3596 29.8465 68.3134 29.4577 66.2428 29.3346V20.1247H72.331V30.4914ZM51.0222 73.7285C52.9012 75.0086 54.9506 76.0185 57.1104 76.7285V81.007H51.0222V73.7285ZM66.2428 77.8853C68.3134 77.7622 70.3596 77.3734 72.331 76.7285V81.007H66.2428V77.8853ZM75.3751 75.4743C76.4253 74.9688 77.438 74.3889 78.4056 73.7392L85.6734 81.007H75.3751V75.4743ZM8.40456 3.38201H90.5957C90.9994 3.38201 91.3866 3.54237 91.672 3.82781C91.9574 4.11325 92.1178 4.50039 92.1178 4.90407V9.47024H6.8825V4.90407C6.8825 4.50039 7.04286 4.11325 7.3283 3.82781C7.61374 3.54237 8.00088 3.38201 8.40456 3.38201ZM90.5957 88.6173H8.40456C8.00088 88.6173 7.61374 88.4569 7.3283 88.1715C7.04286 87.8861 6.8825 87.4989 6.8825 87.0952V12.5144H92.1178V74.5504L84.8515 67.2933C86.8184 64.4087 88.1405 61.134 88.7276 57.6923C89.3148 54.2507 89.1531 50.7229 88.2538 47.3493C87.3545 43.9757 85.7386 40.8357 83.5161 38.143C81.2937 35.4503 78.517 33.2683 75.3751 31.7456V18.6026C75.3751 18.1989 75.2148 17.8118 74.9293 17.5263C74.6439 17.2409 74.2568 17.0805 73.8531 17.0805H64.7207C64.3171 17.0805 63.9299 17.2409 63.6445 17.5263C63.359 17.8118 63.1987 18.1989 63.1987 18.6026V29.3346C62.1772 29.3923 61.1605 29.5148 60.1546 29.7015V24.6908C60.1546 24.2872 59.9942 23.9 59.7088 23.6146C59.4233 23.3291 59.0362 23.1688 58.6325 23.1688H49.5001C49.0965 23.1688 48.7093 23.3291 48.4239 23.6146C48.1384 23.9 47.9781 24.2872 47.9781 24.6908V35.9708C46.826 37.0638 45.783 38.2663 44.864 39.5613C44.7895 39.2309 44.6055 38.9353 44.342 38.7226C44.0784 38.5098 43.7506 38.3924 43.4119 38.3894H34.2796C33.8759 38.3894 33.4887 38.5497 33.2033 38.8352C32.9179 39.1206 32.7575 39.5077 32.7575 39.9114V81.007H29.7134V55.132C29.7134 54.7283 29.553 54.3412 29.2676 54.0557C28.9821 53.7703 28.595 53.61 28.1913 53.61H19.059C18.6553 53.61 18.2682 53.7703 17.9827 54.0557C17.6973 54.3412 17.5369 54.7283 17.5369 55.132V81.007H14.4928V15.5585H11.4487V82.5291C11.4487 82.9327 11.609 83.3199 11.8945 83.6053C12.1799 83.8908 12.5671 84.0511 12.9707 84.0511H88.7175L92.066 87.3997C92.0001 87.7416 91.8174 88.0499 91.5492 88.2721C91.281 88.4942 90.944 88.6162 90.5957 88.6173ZM26.6693 81.007H20.581V56.6541H26.6693V81.007Z" fill="#2567CC"/>
<path id="Vector_5" d="M9.92627 4.9043H12.9704V7.94841H9.92627V4.9043Z" fill="#2567CC"/>
<path id="Vector_6" d="M16.0146 4.9043H19.0588V7.94841H16.0146V4.9043Z" fill="#2567CC"/>
<path id="Vector_7" d="M22.1028 4.9043H25.1469V7.94841H22.1028V4.9043Z" fill="#2567CC"/>
<path id="Vector_8" d="M64.7205 71.8741C68.3329 71.8741 71.8642 70.8029 74.8678 68.796C77.8715 66.789 80.2125 63.9365 81.5949 60.599C82.9773 57.2616 83.339 53.5892 82.6343 50.0462C81.9295 46.5032 80.19 43.2487 77.6356 40.6943C75.0812 38.14 71.8268 36.4004 68.2838 35.6957C64.7408 34.9909 61.0684 35.3526 57.7309 36.7351C54.3935 38.1175 51.5409 40.4585 49.534 43.4621C47.527 46.4657 46.4558 49.997 46.4558 53.6094C46.461 58.4519 48.387 63.0946 51.8112 66.5187C55.2354 69.9429 59.878 71.8689 64.7205 71.8741ZM64.7205 38.3889C67.7309 38.3889 70.6736 39.2815 73.1766 40.954C75.6796 42.6264 77.6305 45.0036 78.7825 47.7848C79.9345 50.566 80.2359 53.6263 79.6486 56.5788C79.0614 59.5313 77.6117 62.2434 75.4831 64.372C73.3545 66.5007 70.6424 67.9503 67.6899 68.5376C64.7374 69.1249 61.677 68.8234 58.8958 67.6714C56.1146 66.5194 53.7375 64.5686 52.0651 62.0655C50.3926 59.5625 49.4999 56.6198 49.4999 53.6094C49.5044 49.574 51.1094 45.7052 53.9628 42.8518C56.8163 39.9983 60.6851 38.3933 64.7205 38.3889Z" fill="#2567CC"/>
</g>
</g>
</svg>
